<?xml version="1.0" encoding="UTF-8" standalone="no"?>
<svg
   xmlns:dc="http://purl.org/dc/elements/1.1/"
   xmlns:cc="http://creativecommons.org/ns#"
   xmlns:rdf="http://www.w3.org/1999/02/22-rdf-syntax-ns#"
   xmlns:svg="http://www.w3.org/2000/svg"
   xmlns="http://www.w3.org/2000/svg"
   xmlns:sodipodi="http://sodipodi.sourceforge.net/DTD/sodipodi-0.dtd"
   xmlns:inkscape="http://www.inkscape.org/namespaces/inkscape"
   version="1.1"
   id="svg3768"
   viewBox="0 0 903.18227 817.12753"
   height="288.26443mm"
   width="318.86383mm"
   inkscape:version="0.91 r13725"
   sodipodi:docname="classes_diagram2.svg"
   inkscape:export-filename="/home/amadeus/grid_calc/docs/rpz/diagrams/db/classes_diagram2.png"
   inkscape:export-xdpi="90"
   inkscape:export-ydpi="90">
  <sodipodi:namedview
     pagecolor="#ffffff"
     bordercolor="#666666"
     borderopacity="1"
     objecttolerance="10"
     gridtolerance="10"
     guidetolerance="10"
     inkscape:pageopacity="0"
     inkscape:pageshadow="2"
     inkscape:window-width="3840"
     inkscape:window-height="2033"
     id="namedview3690"
     showgrid="false"
     inkscape:zoom="1.7231092"
     inkscape:cx="149.21277"
     inkscape:cy="565.92352"
     inkscape:window-x="-10"
     inkscape:window-y="0"
     inkscape:window-maximized="1"
     inkscape:current-layer="svg3768" />
  <metadata
     id="metadata4160">
    <rdf:RDF>
      <cc:Work
         rdf:about="">
        <dc:format>image/svg+xml</dc:format>
        <dc:type
           rdf:resource="http://purl.org/dc/dcmitype/StillImage" />
        <dc:title />
      </cc:Work>
    </rdf:RDF>
  </metadata>
  <defs
     id="defs4158" />
  <polygon
     transform="matrix(1.3684572,0,0,1.6608283,5.6196983,810.94849)"
     points="-4,4 -4,4 -4,-488 656.5,-488 656.5,4 "
     id="polygon3773"
     style="fill:#ffffff;stroke:none" />
  <polygon
     transform="matrix(1.2820473,0,0,1.3506253,32.267133,645.88539)"
     style="fill:none;stroke:#000000"
     id="polygon3778"
     points="7,-332 7,-461 214,-461 214,-332 7,-332 " />
  <text
     style="font-size:14px;font-family:Times, serif;text-anchor:middle"
     id="text3780"
     font-size="14.00"
     y="39.912891"
     x="170.80255">models.Agent</text>
  <polyline
     transform="matrix(1.2829347,0,0,0.99897592,32.169072,484.40598)"
     style="fill:none;stroke:#000000"
     id="polyline3782"
     points="7,-438 214,-438 " />
  <text
     style="font-size:14px;font-family:Times, serif;text-anchor:start"
     id="text3784"
     font-size="14.00"
     y="62.01207"
     x="49.081085">__tablename__ : str</text>
  <text
     style="font-size:14px;font-family:Times, serif;text-anchor:start"
     id="text3786"
     font-size="14.00"
     y="77.01207"
     x="49.081085">id : Column.Integer</text>
  <polyline
     transform="matrix(1.2829347,0,0,0.99897592,32.169072,529.20598)"
     style="fill:none;stroke:#000000"
     id="polyline3790"
     points="7,-385 214,-385 " />
  <text
     style="font-size:14px;font-family:Times, serif;text-anchor:start"
     id="text3792"
     font-size="14.00"
     y="159.81204"
     x="49.081085">__init__()</text>
  <text
     style="font-size:14px;font-family:Times, serif;text-anchor:start"
     id="text3794"
     font-size="14.00"
     y="174.81204"
     x="49.081085">__repr__()</text>
  <text
     style="font-size:14px;font-family:Times, serif;text-anchor:start"
     id="text3796"
     font-size="14.00"
     y="189.81203"
     x="49.081085">to_dict()</text>
  <polygon
     transform="matrix(1.3996988,0,0,0.9989613,-3.8029784,507.39564)"
     style="fill:none;stroke:#000000"
     id="polygon3801"
     points="232.5,-483.5 420.5,-483.5 420.5,-309.5 232.5,-309.5 232.5,-309.5 " />
  <text
     style="font-size:14px;font-family:Times, serif;text-anchor:middle"
     id="text3803"
     font-size="14.00"
     y="39.507488"
     x="453.9267">models.Subtask</text>
  <polyline
     transform="matrix(1.3984873,0,0,0.99946174,-3.5728584,507.59406)"
     style="fill:none;stroke:#000000"
     id="polyline3805"
     points="232.5,-460.5 420.5,-460.5 " />
  <text
     style="font-size:14px;font-family:Times, serif;text-anchor:start"
     id="text3807"
     font-size="14.00"
     y="62.507507"
     x="329.52655">__tablename__ : str</text>
  <text
     style="font-size:14px;font-family:Times, serif;text-anchor:start"
     id="text3809"
     font-size="14.00"
     y="77.507507"
     x="329.52655">id : Column.Integer</text>
  <text
     style="font-size:13.99999866px;font-family:Times, serif;text-anchor:start;-inkscape-font-specification:'Times, serif, Normal';font-weight:normal;font-style:normal;font-stretch:normal;font-variant:normal;text-align:start;writing-mode:lr;line-height:125%;"
     id="text3811"
     font-size="14.00"
     y="92.5075"
     x="329.52655"
     sodipodi:linespacing="125%">
    <tspan
       sodipodi:role="line"
       id="tspan3568">agent_id : Column.Integer</tspan>
  </text>
  <text
     style="font-size:13.99999866px;font-family:Times, serif;text-anchor:start;-inkscape-font-specification:'Times, serif, Normal';font-weight:normal;font-style:normal;font-stretch:normal;font-variant:normal;text-align:start;writing-mode:lr;line-height:125%;"
     id="text3813"
     font-size="14.00"
     y="107.50749"
     x="329.52655"
     sodipodi:linespacing="125%">
    <tspan
       sodipodi:role="line"
       id="tspan3566">task_id : Column.Integer</tspan>
  </text>
  <text
     style="font-size:14px;font-family:Times, serif;text-anchor:start"
     id="text3815"
     font-size="14.00"
     y="122.50749"
     x="329.52655">result_archive : Column.String</text>
  <text
     style="font-size:14px;font-family:Times, serif;text-anchor:start"
     id="text3817"
     font-size="14.00"
     y="137.50749"
     x="329.52655">status : Column.Integer</text>
  <polyline
     transform="matrix(1.3984873,0,0,0.99946174,-3.5728584,507.59406)"
     style="fill:none;stroke:#000000"
     id="polyline3819"
     points="232.5,-362.5 420.5,-362.5 " />
  <text
     style="font-size:14px;font-family:Times, serif;text-anchor:start"
     id="text3821"
     font-size="14.00"
     y="160.50751"
     x="329.52655">__init__()</text>
  <text
     style="font-size:14px;font-family:Times, serif;text-anchor:start"
     id="text3823"
     font-size="14.00"
     y="175.50751"
     x="329.52655">__repr__()</text>
  <text
     style="font-size:14px;font-family:Times, serif;text-anchor:start"
     id="text3825"
     font-size="14.00"
     y="190.50749"
     x="329.52655">to_dict()</text>
  <polygon
     transform="matrix(1.2424354,0,0,0.99934322,59.16439,507.26752)"
     style="fill:none;stroke:#000000"
     id="polygon3830"
     points="652.5,-483.5 652.5,-309.5 438.5,-309.5 438.5,-309.5 438.5,-483.5 " />
  <text
     style="font-size:14px;font-family:Times, serif;text-anchor:middle"
     id="text3832"
     font-size="14.00"
     y="39.227943"
     x="734.91479">models.Task</text>
  <polyline
     transform="matrix(1.2424354,0,0,0.99934322,59.16439,507.26752)"
     style="fill:none;stroke:#000000"
     id="polyline3834"
     points="438.5,-460.5 652.5,-460.5 " />
  <text
     style="font-size:14px;font-family:Times, serif;text-anchor:start"
     id="text3836"
     font-size="14.00"
     y="62.227959"
     x="611.91516">__tablename__ : str</text>
  <text
     style="font-size:14px;font-family:Times, serif;text-anchor:start"
     id="text3838"
     font-size="14.00"
     y="77.227951"
     x="611.91516">id : Column.Integer</text>
  <text
     style="font-size:14px;font-family:Times, serif;text-anchor:start"
     id="text3840"
     font-size="14.00"
     y="92.227951"
     x="611.91516">max_time : Column.Integer</text>
  <text
     style="font-size:14px;font-family:Times, serif;text-anchor:start"
     id="text3842"
     font-size="14.00"
     y="107.22795"
     x="611.91516">result_files : Column.String</text>
  <text
     style="font-size:14px;font-family:Times, serif;text-anchor:start"
     id="text3844"
     font-size="14.00"
     y="122.22794"
     x="611.91516">start_script : Column.String</text>
  <polyline
     transform="matrix(1.2424354,0,0,0.99934322,59.16439,507.26752)"
     style="fill:none;stroke:#000000"
     id="polyline3848"
     points="438.5,-362.5 652.5,-362.5 " />
  <text
     style="font-size:14px;font-family:Times, serif;text-anchor:start"
     id="text3850"
     font-size="14.00"
     y="160.22795"
     x="611.91516">__init__()</text>
  <text
     style="font-size:14px;font-family:Times, serif;text-anchor:start"
     id="text3852"
     font-size="14.00"
     y="175.22795"
     x="611.91516">__repr__()</text>
  <text
     style="font-size:14px;font-family:Times, serif;text-anchor:start"
     id="text3854"
     font-size="14.00"
     y="190.22795"
     x="611.91516">to_dict()</text>
  <polygon
     transform="matrix(1.3027874,0,0,1.0870321,41.314113,755.31163)"
     style="fill:none;stroke:#000000"
     id="polygon3859"
     points="0,-8 0,-182 203,-182 203,-8 0,-8 " />
  <text
     style="font-size:14px;font-family:Times, serif;text-anchor:middle"
     id="text3861"
     font-size="14.00"
     y="574.18304"
     x="169.01985">models.Trait</text>
  <polyline
     transform="matrix(1.3030286,0,0,0.99918943,41.289633,739.30601)"
     style="fill:none;stroke:#000000"
     id="polyline3863"
     points="0,-159 203,-159 " />
  <text
     style="font-size:14px;font-family:Times, serif;text-anchor:start"
     id="text3865"
     font-size="14.00"
     y="595.58301"
     x="49.219112">__tablename__ : str</text>
  <text
     style="font-size:14px;font-family:Times, serif;text-anchor:start"
     id="text3867"
     font-size="14.00"
     y="610.58301"
     x="49.219112">id : Column.Integer</text>
  <text
     style="font-size:14px;font-family:Times, serif;text-anchor:start"
     id="text3869"
     font-size="14.00"
     y="625.58301"
     x="49.219112">name : Column.String</text>
  <text
     style="font-size:14px;font-family:Times, serif;text-anchor:start"
     id="text3871"
     font-size="14.00"
     y="640.58301"
     x="49.219112">version : Column.String</text>
  <polyline
     transform="matrix(1.3030286,0,0,0.99918943,41.289633,739.30601)"
     style="fill:none;stroke:#000000"
     id="polyline3877"
     points="0,-61 203,-61 " />
  <text
     style="font-size:14px;font-family:Times, serif;text-anchor:start"
     id="text3879"
     font-size="14.00"
     y="693.58301"
     x="49.219112">__init__()</text>
  <text
     style="font-size:14px;font-family:Times, serif;text-anchor:start"
     id="text3881"
     font-size="14.00"
     y="708.58301"
     x="49.219112">__repr__()</text>
  <text
     style="font-size:14px;font-family:Times, serif;text-anchor:start"
     id="text3883"
     font-size="14.00"
     y="723.58301"
     x="49.219112">to_dict()</text>
  <polygon
     transform="matrix(1.2495997,0,0,0.99937827,45.94159,746.93433)"
     style="fill:none;stroke:#000000"
     id="polygon3888"
     points="432.5,-0.5 220.5,-0.5 220.5,-0.5 220.5,-189.5 432.5,-189.5 " />
  <text
     style="font-size:14px;font-family:Times, serif;text-anchor:middle"
     id="text3890"
     font-size="14.00"
     y="572.69342"
     x="456.21954">models.User</text>
  <polyline
     transform="matrix(1.2495997,0,0,0.99937827,45.94159,746.93433)"
     style="fill:none;stroke:#000000"
     id="polyline3892"
     points="220.5,-166.5 432.5,-166.5 " />
  <text
     style="font-size:14px;font-family:Times, serif;text-anchor:start"
     id="text3894"
     font-size="14.00"
     y="595.69342"
     x="329.41956">__tablename__ : str</text>
  <text
     style="font-size:14px;font-family:Times, serif;text-anchor:start"
     id="text3896"
     font-size="14.00"
     y="610.69342"
     x="329.41956">id : Column.Integer</text>
  <text
     style="font-size:14px;font-family:Times, serif;text-anchor:start"
     id="text3898"
     font-size="14.00"
     y="625.69342"
     x="329.41956">mail : Column.String</text>
  <text
     style="font-size:14px;font-family:Times, serif;text-anchor:start"
     id="text3900"
     font-size="14.00"
     y="640.69342"
     x="329.41956">phone : Column.String</text>
  <text
     style="font-size:14px;font-family:Times, serif;text-anchor:start"
     id="text3902"
     font-size="14.00"
     y="655.69342"
     x="329.41956">pw_hash : Column.String</text>
  <text
     style="font-size:14px;font-family:Times, serif;text-anchor:start"
     id="text3904"
     font-size="14.00"
     y="670.69342"
     x="329.41956">username : Column.String</text>
  <polyline
     transform="matrix(1.2495997,0,0,0.99937827,45.94159,746.93433)"
     style="fill:none;stroke:#000000"
     id="polyline3908"
     points="220.5,-53.5 432.5,-53.5 " />
  <text
     style="font-size:14px;font-family:Times, serif;text-anchor:start"
     id="text3910"
     font-size="14.00"
     y="708.69342"
     x="329.41956">__init__()</text>
  <text
     style="font-size:14px;font-family:Times, serif;text-anchor:start"
     id="text3912"
     font-size="14.00"
     y="723.69342"
     x="329.41956">__repr__()</text>
  <text
     style="font-size:14px;font-family:Times, serif;text-anchor:start"
     id="text3914"
     font-size="14.00"
     y="738.69342"
     x="329.41956">to_dict()</text>
  <polygon
     transform="matrix(1.3467512,0,0,0.99915341,-5.07831,747.31475)"
     style="fill:none;stroke:#000000"
     id="polygon3919"
     points="646.5,-189.5 646.5,-0.5 450.5,-0.5 450.5,-0.5 450.5,-189.5 " />
  <text
     style="font-size:14px;font-family:Times, serif;text-anchor:middle"
     id="text3921"
     font-size="14.00"
     y="574.19031"
     x="736.98389">models.UserSession</text>
  <polyline
     transform="matrix(1.3467512,0,0,0.99915341,-4.44747,748.40986)"
     style="fill:none;stroke:#000000"
     id="polyline3923"
     points="450.5,-166.5 646.5,-166.5 " />
  <text
     style="font-size:14px;font-family:Times, serif;text-anchor:start"
     id="text3925"
     font-size="14.00"
     y="597.19031"
     x="610.18396">__tablename__ : str</text>
  <text
     style="font-size:14px;font-family:Times, serif;text-anchor:start"
     id="text3927"
     font-size="14.00"
     y="612.19031"
     x="610.18396">id : Column.Integer</text>
  <text
     style="font-size:13.99999866px;font-family:Times, serif;text-anchor:start;-inkscape-font-specification:'Times, serif, Normal';font-weight:normal;font-style:normal;font-stretch:normal;font-variant:normal;text-align:start;writing-mode:lr;line-height:125%;"
     id="text3929"
     font-size="14.00"
     y="627.19031"
     x="610.18396"
     sodipodi:linespacing="125%">
    <tspan
       sodipodi:role="line"
       id="tspan3570">session_id : Column.Integer</tspan>
  </text>
  <text
     style="font-size:13.99999866px;font-family:Times, serif;text-anchor:start;-inkscape-font-specification:'Times, serif, Normal';font-weight:normal;font-style:normal;font-stretch:normal;font-variant:normal;text-align:start;writing-mode:lr;line-height:125%;"
     id="text3931"
     font-size="14.00"
     y="642.19031"
     x="610.18396"
     sodipodi:linespacing="125%">
    <tspan
       sodipodi:role="line"
       id="tspan3572">user_id : Column.Integer</tspan>
  </text>
  <text
     style="font-size:14px;font-family:Times, serif;text-anchor:start"
     id="text3933"
     font-size="14.00"
     y="657.19031"
     x="610.18396">timestamp : Column.String</text>
  <polyline
     transform="matrix(1.3467512,0,0,0.99915341,-4.44747,748.40986)"
     style="fill:none;stroke:#000000"
     id="polyline3935"
     points="450.5,-83.5 646.5,-83.5 " />
  <text
     style="font-size:14px;font-family:Times, serif;text-anchor:start"
     id="text3937"
     font-size="14.00"
     y="680.19031"
     x="610.18396">__repr__()</text>
  <text
     style="font-size:14px;font-family:Times, serif;text-anchor:start"
     id="text3939"
     font-size="14.00"
     y="695.19031"
     x="610.18396">refresh()</text>
  <text
     style="font-size:14px;font-family:Times, serif;text-anchor:start"
     id="text3941"
     font-size="14.00"
     y="710.19031"
     x="610.18396">session_expired()</text>
  <text
     style="font-size:14px;font-family:Times, serif;text-anchor:start"
     id="text3943"
     font-size="14.00"
     y="725.19031"
     x="610.18396">to_dict()</text>
  <text
     style="font-size:14px;font-family:Times, serif;text-anchor:start"
     id="text3945"
     font-size="14.00"
     y="740.19031"
     x="610.18396">usersession_init()</text>
  <g
     transform="matrix(1.1976806,0,0,0.99796981,56.363692,136.71969)"
     id="g5330">
    <polygon
       points="422,-226.5 231,-226.5 231,-226.5 231,-272.5 422,-272.5 "
       id="polygon3950"
       style="fill:none;stroke:#000000"
       transform="matrix(1.0012849,0,0,1,3.4409769,488)" />
    <text
       x="357.82114"
       y="212.97385"
       font-size="14.00"
       id="text3952"
       style="font-size:12.9242897px;font-family:Times, serif;text-anchor:middle"
       transform="scale(0.92316352,1.0832317)">sqlalchemy.sql.schema.Column</text>
    <polyline
       points="231,-249.5 422,-249.5 "
       id="polyline3954"
       style="fill:none;stroke:#000000"
       transform="matrix(1.0012849,0,0,1,3.4409769,488)" />
  </g>
  <text
     transform="scale(1.0006423,0.99935812)"
     style="font-size:14.0089922px;font-family:Times, serif;text-anchor:middle"
     id="text3956"
     font-size="14.00"
     y="429.21027"
     x="446.60022" />
  <path
     style="fill:none;stroke:#000000;stroke-width:0.88016015"
     id="path3961"
     d="m 338.59,357.33285 -146.98166,0.10308 0.17183,-146.38433"
     inkscape:connector-curvature="0" />
  <polygon
     transform="translate(-16.653006,530.45066)"
     style="fill:#000000;stroke:#000000"
     id="polygon3963"
     points="208.5,-331.705 204.5,-325.705 208.5,-319.705 208.5,-319.705 212.5,-325.705 " />
  <text
     transform="matrix(0,-1,1,0,0,0)"
     style="font-size:14px;font-family:Times, serif;text-anchor:middle;fill:#008000"
     id="text3965"
     font-size="14.00"
     y="187.00337"
     x="-283.48273">id</text>
  <path
     style="fill:none;stroke:#000000;stroke-width:0.88657939"
     id="path3970"
     d="m 384.35715,352.02954 0.43118,-140.74682"
     inkscape:connector-curvature="0" />
  <polygon
     transform="translate(121.03791,508.08702)"
     style="fill:#000000;stroke:#000000"
     id="polygon3972"
     points="267.833,-303.291 263.833,-309.291 259.833,-303.291 263.833,-297.291 263.833,-297.291 " />
  <text
     transform="matrix(0,-1,1,0,0,0)"
     style="font-size:14px;font-family:Times, serif;text-anchor:middle;fill:#008000"
     id="text3974"
     font-size="14.00"
     y="376.29913"
     x="-285.00995">id</text>
  <path
     style="fill:none;stroke:#000000;stroke-width:0.88657939"
     id="path3979"
     d="m 415.69234,352.02954 0.43118,-140.74682"
     inkscape:connector-curvature="0" />
  <polygon
     style="fill:#000000;stroke:#000000"
     id="polygon3981"
     points="299.167,-303.291 295.167,-309.291 291.167,-303.291 295.167,-297.291 295.167,-297.291 "
     transform="translate(121.03791,508.08702)" />
  <text
     transform="matrix(0,-1,1,0,0,0)"
     style="font-size:14px;font-family:Times, serif;text-anchor:middle;fill:#008000"
     id="text3983"
     font-size="14.00"
     y="409.66498"
     x="-288.76855">status</text>
  <path
     style="fill:none;stroke:#000000;stroke-width:0.88657939"
     id="path3988"
     d="m 447.02653,352.02954 0.32338,-141.00099"
     inkscape:connector-curvature="0" />
  <polygon
     style="fill:#000000;stroke:#000000"
     id="polygon3990"
     points="330.5,-303.291 326.5,-309.291 322.5,-303.291 326.5,-297.291 326.5,-297.291 "
     transform="translate(121.03791,508.08702)" />
  <text
     transform="matrix(0,-1,1,0,0,0)"
     style="font-size:14px;font-family:Times, serif;text-anchor:middle;fill:#008000"
     id="text3992"
     font-size="14.00"
     y="439.77036"
     x="-290.09863">agent_id</text>
  <path
     style="fill:none;stroke:#000000;stroke-width:0.88657939"
     id="path3997"
     d="m 478.36072,352.02954 0.21559,-141.08571"
     inkscape:connector-curvature="0" />
  <polygon
     style="fill:#000000;stroke:#000000"
     id="polygon3999"
     points="361.833,-303.291 357.833,-309.291 353.833,-303.291 357.833,-297.291 357.833,-297.291 "
     transform="translate(121.03791,508.08702)" />
  <text
     transform="matrix(0,-1,1,0,0,0)"
     style="font-size:14px;font-family:Times, serif;text-anchor:middle;fill:#008000"
     id="text4001"
     font-size="14.00"
     y="502.2413"
     x="-296.5228">result_archive</text>
  <path
     style="fill:none;stroke:#000000;stroke-width:0.88657939"
     id="path4006"
     d="m 509.69591,352.02954 0.43118,-141.00099"
     inkscape:connector-curvature="0" />
  <polygon
     style="fill:#000000;stroke:#000000"
     id="polygon4008"
     points="393.167,-303.291 389.167,-309.291 385.167,-303.291 389.167,-297.291 389.167,-297.291 "
     transform="translate(121.03791,508.08702)" />
  <text
     transform="matrix(0,-1,1,0,0,0)"
     style="font-size:14px;font-family:Times, serif;text-anchor:middle;fill:#008000"
     id="text4010"
     font-size="14.00"
     y="471.25742"
     x="-293.09991">task_id</text>
  <path
     style="fill:none;stroke:#000000;stroke-width:0.89413112"
     id="path4015"
     d="m 566.899,358.90085 49.69973,-0.18274 0,-147.9556"
     inkscape:connector-curvature="0" />
  <polygon
     transform="translate(175.70909,507.87429)"
     style="fill:#000000;stroke:#000000"
     id="polygon4017"
     points="440.9,-309.403 436.9,-303.403 440.9,-297.403 440.9,-297.403 444.9,-303.403 " />
  <text
     transform="matrix(0,-1,1,0,0,0)"
     style="font-size:14px;font-family:Times, serif;text-anchor:middle;fill:#008000"
     id="text4019"
     font-size="14.00"
     y="720.77393"
     x="-312.41812">result_files</text>
  <path
     style="fill:none;stroke:#000000;stroke-width:0.89413112"
     id="path4024"
     d="m 567.34303,363.32331 86.11874,-0.12183 -0.45747,-152.57439"
     inkscape:connector-curvature="0" />
  <polygon
     transform="translate(209.66292,508.08987)"
     style="fill:#000000;stroke:#000000"
     id="polygon4026"
     points="439.3,-303.42 443.3,-297.42 443.3,-297.42 447.3,-303.42 443.3,-309.42 " />
  <text
     transform="matrix(0,-1,1,0,0,0)"
     style="font-size:14px;font-family:Times, serif;text-anchor:middle;fill:#008000"
     id="text4028"
     font-size="14.00"
     y="610.97791"
     x="-296.75247">id</text>
  <path
     style="fill:none;stroke:#000000;stroke-width:0.89413112"
     id="path4033"
     d="m 567.11629,367.19753 123.05603,0.12182 -0.45746,-156.75175"
     inkscape:connector-curvature="0" />
  <polygon
     transform="translate(283.28345,507.98208)"
     style="fill:#000000;stroke:#000000"
     id="polygon4035"
     points="445.7,-297.342 445.7,-297.342 449.7,-303.342 445.7,-309.342 441.7,-303.342 " />
  <text
     transform="matrix(0,-1,1,0,0,0)"
     style="font-size:14px;font-family:Times, serif;text-anchor:middle;fill:#008000"
     id="text4037"
     font-size="14.00"
     y="645.69983"
     x="-299.94025">start_script</text>
  <path
     style="fill:none;stroke:#000000;stroke-width:0.89413112"
     id="path4042"
     d="m 566.90401,371.01083 162.26618,0.0609 0,-160.56239"
     inkscape:connector-curvature="0" />
  <polygon
     transform="translate(241.46095,507.87429)"
     style="fill:#000000;stroke:#000000"
     id="polygon4044"
     points="448.1,-297.11 448.1,-297.11 452.1,-303.11 448.1,-309.11 444.1,-303.11 " />
  <text
     transform="matrix(0,-1,1,0,0,0)"
     style="font-size:14px;font-family:Times, serif;text-anchor:middle;fill:#008000"
     id="text4046"
     font-size="14.00"
     y="682.45905"
     x="-301.68372">max_time</text>
  <path
     style="fill:none;stroke:#000000;stroke-width:1.05419016"
     id="path4051"
     d="m 337.7801,369.00832 -181.41108,0.60976 0,175.37314"
     inkscape:connector-curvature="0" />
  <polygon
     transform="translate(100.32752,738.5251)"
     style="fill:#000000;stroke:#000000"
     id="polygon4053"
     points="56,-182.407 60,-188.407 56.0001,-194.407 56.0001,-194.407 52,-188.407 " />
  <text
     transform="matrix(0,-1,1,0,0,0)"
     style="font-size:14px;font-family:Times, serif;text-anchor:middle;fill:#008000"
     id="text4055"
     font-size="14.00"
     y="148.79515"
     x="-452.39996">id</text>
  <path
     style="fill:none;stroke:#000000"
     id="path4060"
     d="m 337.74304,379.37599 -112.84734,0.22866 0,165.70223"
     inkscape:connector-curvature="0" />
  <polygon
     transform="translate(119.8957,738.80465)"
     style="fill:#000000;stroke:#000000"
     id="polygon4062"
     points="101,-188.105 105,-182.105 109,-188.105 105,-194.105 105,-194.105 " />
  <text
     transform="matrix(0,-1,1,0,0,0)"
     style="font-size:14px;font-family:Times, serif;text-anchor:middle;fill:#008000"
     id="text4064"
     font-size="14.00"
     y="216.97153"
     x="-455.83514">version</text>
  <path
     style="fill:none;stroke:#000000"
     id="path4069"
     d="m 337.77925,388.37599 -63.88355,0.22866 0,156.73523"
     inkscape:connector-curvature="0" />
  <polygon
     transform="translate(119.8957,738.80465)"
     style="fill:#000000;stroke:#000000"
     id="polygon4071"
     points="150,-188.072 154,-182.072 158,-188.072 154,-194.072 154,-194.072 " />
  <text
     transform="matrix(0,-1,1,0,0,0)"
     style="font-size:14px;font-family:Times, serif;text-anchor:middle;fill:#008000"
     id="text4073"
     font-size="14.00"
     y="267.01953"
     x="-458.13568">name</text>
  <path
     style="fill:none;stroke:#000000"
     id="path4078"
     d="m 382.7287,397.23465 0,148.14899"
     inkscape:connector-curvature="0" />
  <polygon
     transform="translate(119.8957,746.80465)"
     style="fill:#000000;stroke:#000000"
     id="polygon4080"
     points="258.833,-195.671 262.833,-189.671 266.833,-195.671 262.833,-201.671 262.833,-201.671 " />
  <text
     transform="matrix(0,-1,1,0,0,0)"
     style="font-size:14px;font-family:Times, serif;text-anchor:middle;fill:#008000"
     id="text4082"
     font-size="14.00"
     y="406.62991"
     x="-467.52893">pw_hash</text>
  <path
     style="fill:none;stroke:#000000"
     id="path4087"
     d="m 414.5627,397.23465 0,148.14899"
     inkscape:connector-curvature="0" />
  <polygon
     transform="translate(119.8957,746.80465)"
     style="fill:#000000;stroke:#000000"
     id="polygon4089"
     points="290.667,-195.671 294.667,-189.671 298.667,-195.671 294.667,-201.671 294.667,-201.671 " />
  <text
     transform="matrix(0,-1,1,0,0,0)"
     style="font-size:14px;font-family:Times, serif;text-anchor:middle;fill:#008000"
     id="text4091"
     font-size="14.00"
     y="376.20135"
     x="-467.79886">id</text>
  <path
     style="fill:none;stroke:#000000"
     id="path4096"
     d="m 446.3957,397.23465 0,148.14899"
     inkscape:connector-curvature="0" />
  <polygon
     transform="translate(119.8957,746.80465)"
     style="fill:#000000;stroke:#000000"
     id="polygon4098"
     points="322.5,-195.671 326.5,-189.671 330.5,-195.671 326.5,-201.671 326.5,-201.671 " />
  <text
     transform="matrix(0,-1,1,0,0,0)"
     style="font-size:14px;font-family:Times, serif;text-anchor:middle;fill:#008000"
     id="text4100"
     font-size="14.00"
     y="471.68509"
     x="-470.67743">phone</text>
  <path
     style="fill:none;stroke:#000000"
     id="path4105"
     d="m 478.2287,397.23465 0,148.5376"
     inkscape:connector-curvature="0" />
  <polygon
     transform="translate(119.8957,746.80465)"
     style="fill:#000000;stroke:#000000"
     id="polygon4107"
     points="354.333,-195.671 358.333,-189.671 362.333,-195.671 358.333,-201.671 358.333,-201.671 " />
  <text
     transform="matrix(0,-1,1,0,0,0)"
     style="font-size:14px;font-family:Times, serif;text-anchor:middle;fill:#008000"
     id="text4109"
     font-size="14.00"
     y="439.97498"
     x="-467.01352">username</text>
  <path
     style="fill:none;stroke:#000000"
     id="path4114"
     d="m 510.0627,397.23465 0,148.14899"
     inkscape:connector-curvature="0" />
  <polygon
     transform="translate(119.8957,746.80465)"
     style="fill:#000000;stroke:#000000"
     id="polygon4116"
     points="386.167,-195.671 390.167,-189.671 394.167,-195.671 390.167,-201.671 390.167,-201.671 " />
  <text
     transform="matrix(0,-1,1,0,0,0)"
     style="font-size:14px;font-family:Times, serif;text-anchor:middle;fill:#008000"
     id="text4118"
     font-size="14.00"
     y="504.78"
     x="-469.06219">mail</text>
  <path
     style="fill:none;stroke:#000000"
     id="path4123"
     d="m 566.55956,377.29977 160.63614,0.30488 0,167.41791"
     inkscape:connector-curvature="0" />
  <polygon
     transform="translate(119.8957,746.80465)"
     style="fill:#000000;stroke:#000000"
     id="polygon4125"
     points="603.3,-195.773 607.3,-189.773 611.3,-195.773 607.3,-201.773 607.3,-201.773 " />
  <text
     transform="matrix(0,-1,1,0,0,0)"
     style="font-size:14px;font-family:Times, serif;text-anchor:middle;fill:#008000"
     id="text4127"
     font-size="14.00"
     y="718.98358"
     x="-462.42178">session_id</text>
  <path
     style="fill:none;stroke:#000000"
     id="path4132"
     d="m 567.07709,382.22356 120.91861,0.38109 0,162.66491"
     inkscape:connector-curvature="0" />
  <polygon
     transform="translate(119.8957,746.49813)"
     style="fill:#000000;stroke:#000000"
     id="polygon4134"
     points="568.1,-201.526 564.1,-195.526 568.1,-189.526 572.1,-195.526 568.1,-201.526 " />
  <text
     transform="matrix(0,-1,1,0,0,0)"
     style="font-size:14px;font-family:Times, serif;text-anchor:middle;fill:#008000"
     id="text4136"
     font-size="14.00"
     y="604.26025"
     x="-467.93652">id</text>
  <path
     style="fill:none;stroke:#000000"
     id="path4141"
     d="m 566.73588,386.9949 82.05982,0.60975 0,157.35991"
     inkscape:connector-curvature="0" />
  <polygon
     transform="translate(119.8957,746.80465)"
     style="fill:#000000;stroke:#000000"
     id="polygon4143"
     points="524.9,-195.831 528.9,-189.831 532.9,-195.831 528.9,-201.831 528.9,-201.831 " />
  <text
     transform="matrix(0,-1,1,0,0,0)"
     style="font-size:14px;font-family:Times, serif;text-anchor:middle;fill:#008000"
     id="text4145"
     font-size="14.00"
     y="640.86237"
     x="-467.35272">user_id</text>
  <path
     style="fill:none;stroke:#000000"
     id="path4150"
     d="m 566.51134,392.07112 43.08436,0.53353 0,152.36491"
     inkscape:connector-curvature="0" />
  <polygon
     transform="translate(119.8957,746.80465)"
     style="fill:#000000;stroke:#000000"
     id="polygon4152"
     points="485.7,-195.826 489.7,-189.826 493.7,-195.826 489.7,-201.826 489.7,-201.826 " />
  <text
     transform="matrix(0,-1,1,0,0,0)"
     style="font-size:14px;font-family:Times, serif;text-anchor:middle;fill:#008000"
     id="text4154"
     font-size="14.00"
     y="680.82465"
     x="-465.42279">timestamp</text>
</svg>
