<?xml version="1.0" encoding="UTF-8" standalone="no"?>
<svg
   xmlns:dc="http://purl.org/dc/elements/1.1/"
   xmlns:cc="http://creativecommons.org/ns#"
   xmlns:rdf="http://www.w3.org/1999/02/22-rdf-syntax-ns#"
   xmlns:svg="http://www.w3.org/2000/svg"
   xmlns="http://www.w3.org/2000/svg"
   version="1.1"
   id="svg3768"
   viewBox="0 0 903.18227 817.12753"
   height="288.26443mm"
   width="318.86383mm">
  <metadata
     id="metadata4160">
    <rdf:RDF>
      <cc:Work
         rdf:about="">
        <dc:format>image/svg+xml</dc:format>
        <dc:type
           rdf:resource="http://purl.org/dc/dcmitype/StillImage" />
        <dc:title></dc:title>
      </cc:Work>
    </rdf:RDF>
  </metadata>
  <defs
     id="defs4158" />
  <polygon
     transform="matrix(1.3684572,0,0,1.6608283,5.1554206,810.48421)"
     points="-4,4 -4,-488 656.5,-488 656.5,4 -4,4 "
     id="polygon3773"
     style="fill:#ffffff;stroke:none" />
  <g
     transform="translate(100.52654,175.23475)"
     id="g5463">
    <polygon
       points="7,-461 214,-461 214,-332 7,-332 7,-332 "
       id="polygon3778"
       style="fill:none;stroke:#000000"
       transform="matrix(1.2829347,0,0,0.99897592,-68.357468,353.97123)" />
    <text
       x="74.454514"
       y="-91.422714"
       font-size="14.00"
       id="text3780"
       style="font-size:14px;font-family:Times, serif;text-anchor:middle">models.Agent</text>
    <polyline
       points="7,-438 214,-438 "
       id="polyline3782"
       style="fill:none;stroke:#000000"
       transform="matrix(1.2829347,0,0,0.99897592,-68.357468,353.97123)" />
    <text
       x="-51.445454"
       y="-68.422714"
       font-size="14.00"
       id="text3784"
       style="font-size:14px;font-family:Times, serif;text-anchor:start">__tablename__ : str</text>
    <text
       x="-51.445454"
       y="-53.42271"
       font-size="14.00"
       id="text3786"
       style="font-size:14px;font-family:Times, serif;text-anchor:start">id : Column.Integer</text>
    <text
       x="-51.445454"
       y="-38.42271"
       font-size="14.00"
       id="text3788"
       style="font-size:14px;font-family:Times, serif;text-anchor:start">subtasks : sqlalchemy.orm.relation</text>
    <polyline
       points="7,-385 214,-385 "
       id="polyline3790"
       style="fill:none;stroke:#000000"
       transform="matrix(1.2829347,0,0,0.99897592,-68.357468,353.97123)" />
    <text
       x="-51.445454"
       y="-15.422714"
       font-size="14.00"
       id="text3792"
       style="font-size:14px;font-family:Times, serif;text-anchor:start">__init__()</text>
    <text
       x="-51.445454"
       y="-0.42271444"
       font-size="14.00"
       id="text3794"
       style="font-size:14px;font-family:Times, serif;text-anchor:start">__repr__()</text>
    <text
       x="-51.445454"
       y="14.577284"
       font-size="14.00"
       id="text3796"
       style="font-size:14px;font-family:Times, serif;text-anchor:start">to_dict()</text>
  </g>
  <polygon
     transform="matrix(1.3996988,0,0,0.9989613,-3.8029784,507.39564)"
     style="fill:none;stroke:#000000"
     id="polygon3801"
     points="232.5,-483.5 420.5,-483.5 420.5,-309.5 232.5,-309.5 232.5,-309.5 " />
  <text
     style="font-size:14px;font-family:Times, serif;text-anchor:middle"
     id="text3803"
     font-size="14.00"
     y="39.507488"
     x="453.9267">models.Subtask</text>
  <polyline
     transform="matrix(1.3984873,0,0,0.99946174,-3.5728584,507.59406)"
     style="fill:none;stroke:#000000"
     id="polyline3805"
     points="232.5,-460.5 420.5,-460.5 " />
  <text
     style="font-size:14px;font-family:Times, serif;text-anchor:start"
     id="text3807"
     font-size="14.00"
     y="62.507507"
     x="329.52655">__tablename__ : str</text>
  <text
     style="font-size:14px;font-family:Times, serif;text-anchor:start"
     id="text3809"
     font-size="14.00"
     y="77.507507"
     x="329.52655">id : Column.Integer</text>
  <text
     style="font-size:14px;font-family:Times, serif;text-anchor:start"
     id="text3811"
     font-size="14.00"
     y="92.5075"
     x="329.52655">agent_id : Column.ForeignKey</text>
  <text
     style="font-size:14px;font-family:Times, serif;text-anchor:start"
     id="text3813"
     font-size="14.00"
     y="107.50749"
     x="329.52655">task_id : Column.ForeignKey</text>
  <text
     style="font-size:14px;font-family:Times, serif;text-anchor:start"
     id="text3815"
     font-size="14.00"
     y="122.50749"
     x="329.52655">result_archive : Column.String</text>
  <text
     style="font-size:14px;font-family:Times, serif;text-anchor:start"
     id="text3817"
     font-size="14.00"
     y="137.50749"
     x="329.52655">status : Column.Integer</text>
  <polyline
     transform="matrix(1.3984873,0,0,0.99946174,-3.5728584,507.59406)"
     style="fill:none;stroke:#000000"
     id="polyline3819"
     points="232.5,-362.5 420.5,-362.5 " />
  <text
     style="font-size:14px;font-family:Times, serif;text-anchor:start"
     id="text3821"
     font-size="14.00"
     y="160.50751"
     x="329.52655">__init__()</text>
  <text
     style="font-size:14px;font-family:Times, serif;text-anchor:start"
     id="text3823"
     font-size="14.00"
     y="175.50751"
     x="329.52655">__repr__()</text>
  <text
     style="font-size:14px;font-family:Times, serif;text-anchor:start"
     id="text3825"
     font-size="14.00"
     y="190.50749"
     x="329.52655">to_dict()</text>
  <g
     transform="translate(142.12654,175.23475)"
     id="g5488">
    <polygon
       points="438.5,-309.5 438.5,-483.5 652.5,-483.5 652.5,-309.5 438.5,-309.5 "
       id="polygon3830"
       style="fill:none;stroke:#000000"
       transform="matrix(1.2424354,0,0,0.99934322,-82.96215,332.03277)" />
    <text
       x="592.78827"
       y="-136.00681"
       font-size="14.00"
       id="text3832"
       style="font-size:14px;font-family:Times, serif;text-anchor:middle">models.Task</text>
    <polyline
       points="438.5,-460.5 652.5,-460.5 "
       id="polyline3834"
       style="fill:none;stroke:#000000"
       transform="matrix(1.2424354,0,0,0.99934322,-82.96215,332.03277)" />
    <text
       x="469.78864"
       y="-113.00679"
       font-size="14.00"
       id="text3836"
       style="font-size:14px;font-family:Times, serif;text-anchor:start">__tablename__ : str</text>
    <text
       x="469.78864"
       y="-98.006798"
       font-size="14.00"
       id="text3838"
       style="font-size:14px;font-family:Times, serif;text-anchor:start">id : Column.Integer</text>
    <text
       x="469.78864"
       y="-83.006798"
       font-size="14.00"
       id="text3840"
       style="font-size:14px;font-family:Times, serif;text-anchor:start">max_time : Column.Integer</text>
    <text
       x="469.78864"
       y="-68.006798"
       font-size="14.00"
       id="text3842"
       style="font-size:14px;font-family:Times, serif;text-anchor:start">result_files : Column.String</text>
    <text
       x="469.78864"
       y="-53.006805"
       font-size="14.00"
       id="text3844"
       style="font-size:14px;font-family:Times, serif;text-anchor:start">start_script : Column.String</text>
    <text
       x="469.78864"
       y="-38.006805"
       font-size="14.00"
       id="text3846"
       style="font-size:14px;font-family:Times, serif;text-anchor:start">subtasks : sqlalchemy.qorm.relation</text>
    <polyline
       points="438.5,-362.5 652.5,-362.5 "
       id="polyline3848"
       style="fill:none;stroke:#000000"
       transform="matrix(1.2424354,0,0,0.99934322,-82.96215,332.03277)" />
    <text
       x="469.78864"
       y="-15.006805"
       font-size="14.00"
       id="text3850"
       style="font-size:14px;font-family:Times, serif;text-anchor:start">__init__()</text>
    <text
       x="469.78864"
       y="-0.0068042409"
       font-size="14.00"
       id="text3852"
       style="font-size:14px;font-family:Times, serif;text-anchor:start">__repr__()</text>
    <text
       x="469.78864"
       y="14.993196"
       font-size="14.00"
       id="text3854"
       style="font-size:14px;font-family:Times, serif;text-anchor:start">to_dict()</text>
  </g>
  <g
     transform="translate(101.66159,947.23823)"
     id="g5348">
    <polygon
       points="203,-8 0,-8 0,-8 0,-182 203,-182 "
       id="polygon3859"
       style="fill:none;stroke:#000000"
       transform="matrix(1.3030286,0,0,0.99918943,-59.741117,-168.30212)" />
    <text
       x="67.989105"
       y="-333.42511"
       font-size="14.00"
       id="text3861"
       style="font-size:14px;font-family:Times, serif;text-anchor:middle">models.Trait</text>
    <polyline
       points="0,-159 203,-159 "
       id="polyline3863"
       style="fill:none;stroke:#000000"
       transform="matrix(1.3030286,0,0,0.99918943,-59.741117,-168.30212)" />
    <text
       x="-51.811638"
       y="-312.02512"
       font-size="14.00"
       id="text3865"
       style="font-size:14px;font-family:Times, serif;text-anchor:start">__tablename__ : str</text>
    <text
       x="-51.811638"
       y="-297.02512"
       font-size="14.00"
       id="text3867"
       style="font-size:14px;font-family:Times, serif;text-anchor:start">id : Column.Integer</text>
    <text
       x="-51.811638"
       y="-282.02512"
       font-size="14.00"
       id="text3869"
       style="font-size:14px;font-family:Times, serif;text-anchor:start">name : Column.String</text>
    <text
       x="-51.811638"
       y="-267.02512"
       font-size="14.00"
       id="text3871"
       style="font-size:14px;font-family:Times, serif;text-anchor:start">version : Column.String</text>
    <text
       x="-51.811638"
       y="-252.02512"
       font-size="14.00"
       id="text3873"
       style="font-size:14px;font-family:Times, serif;text-anchor:start">agents : sqlalchemy.qorm.relation</text>
    <text
       x="-51.811638"
       y="-237.02512"
       font-size="14.00"
       id="text3875"
       style="font-size:14px;font-family:Times, serif;text-anchor:start">tasks : sqlalchemy.qorm.relation</text>
    <polyline
       points="0,-61 203,-61 "
       id="polyline3877"
       style="fill:none;stroke:#000000"
       transform="matrix(1.3030286,0,0,0.99918943,-59.741117,-168.30212)" />
    <text
       x="-51.811638"
       y="-214.02512"
       font-size="14.00"
       id="text3879"
       style="font-size:14px;font-family:Times, serif;text-anchor:start">__init__()</text>
    <text
       x="-51.811638"
       y="-199.02512"
       font-size="14.00"
       id="text3881"
       style="font-size:14px;font-family:Times, serif;text-anchor:start">__repr__()</text>
    <text
       x="-51.811638"
       y="-184.02512"
       font-size="14.00"
       id="text3883"
       style="font-size:14px;font-family:Times, serif;text-anchor:start">to_dict()</text>
  </g>
  <g
     transform="translate(381.25352,976.40659)"
     id="g5377">
    <polygon
       points="432.5,-189.5 432.5,-0.5 220.5,-0.5 220.5,-0.5 220.5,-189.5 "
       id="polygon3888"
       style="fill:none;stroke:#000000"
       transform="matrix(1.2495997,0,0,0.99937827,-334.68109,-189.84216)" />
    <text
       x="75.596863"
       y="-364.0831"
       font-size="14.00"
       id="text3890"
       style="font-size:14px;font-family:Times, serif;text-anchor:middle">models.User</text>
    <polyline
       points="220.5,-166.5 432.5,-166.5 "
       id="polyline3892"
       style="fill:none;stroke:#000000"
       transform="matrix(1.2495997,0,0,0.99937827,-334.68109,-189.84216)" />
    <text
       x="-51.20311"
       y="-341.0831"
       font-size="14.00"
       id="text3894"
       style="font-size:14px;font-family:Times, serif;text-anchor:start">__tablename__ : str</text>
    <text
       x="-51.20311"
       y="-326.0831"
       font-size="14.00"
       id="text3896"
       style="font-size:14px;font-family:Times, serif;text-anchor:start">id : Column.Integer</text>
    <text
       x="-51.20311"
       y="-311.0831"
       font-size="14.00"
       id="text3898"
       style="font-size:14px;font-family:Times, serif;text-anchor:start">mail : Column.String</text>
    <text
       x="-51.20311"
       y="-296.0831"
       font-size="14.00"
       id="text3900"
       style="font-size:14px;font-family:Times, serif;text-anchor:start">phone : Column.String</text>
    <text
       x="-51.20311"
       y="-281.0831"
       font-size="14.00"
       id="text3902"
       style="font-size:14px;font-family:Times, serif;text-anchor:start">pw_hash : Column.String</text>
    <text
       x="-51.20311"
       y="-266.0831"
       font-size="14.00"
       id="text3904"
       style="font-size:14px;font-family:Times, serif;text-anchor:start">username : Column.String</text>
    <text
       x="-51.20311"
       y="-251.0831"
       font-size="14.00"
       id="text3906"
       style="font-size:14px;font-family:Times, serif;text-anchor:start">sessions : sqlalchemy.qorm.relation</text>
    <polyline
       points="220.5,-53.5 432.5,-53.5 "
       id="polyline3908"
       style="fill:none;stroke:#000000"
       transform="matrix(1.2495997,0,0,0.99937827,-334.68109,-189.84216)" />
    <text
       x="-51.20311"
       y="-228.0831"
       font-size="14.00"
       id="text3910"
       style="font-size:14px;font-family:Times, serif;text-anchor:start">__init__()</text>
    <text
       x="-51.20311"
       y="-213.0831"
       font-size="14.00"
       id="text3912"
       style="font-size:14px;font-family:Times, serif;text-anchor:start">__repr__()</text>
    <text
       x="-51.20311"
       y="-198.0831"
       font-size="14.00"
       id="text3914"
       style="font-size:14px;font-family:Times, serif;text-anchor:start">to_dict()</text>
  </g>
  <g
     transform="translate(663.08541,992.7282)"
     id="g5437">
    <polygon
       points="450.5,-0.5 450.5,-189.5 646.5,-189.5 646.5,-0.5 450.5,-0.5 "
       id="polygon3919"
       style="fill:none;stroke:#000000"
       transform="matrix(1.3467512,0,0,0.99915341,-665.2115,-206.2476)" />
    <text
       x="76.219879"
       y="-380.46716"
       font-size="14.00"
       id="text3921"
       style="font-size:14px;font-family:Times, serif;text-anchor:middle">models.UserSession</text>
    <polyline
       points="450.5,-166.5 646.5,-166.5 "
       id="polyline3923"
       style="fill:none;stroke:#000000"
       transform="matrix(1.3467512,0,0,0.99915341,-665.2115,-206.2476)" />
    <text
       x="-50.58009"
       y="-357.46716"
       font-size="14.00"
       id="text3925"
       style="font-size:14px;font-family:Times, serif;text-anchor:start">__tablename__ : str</text>
    <text
       x="-50.58009"
       y="-342.46716"
       font-size="14.00"
       id="text3927"
       style="font-size:14px;font-family:Times, serif;text-anchor:start">id : Column.Integer</text>
    <text
       x="-50.58009"
       y="-327.46716"
       font-size="14.00"
       id="text3929"
       style="font-size:14px;font-family:Times, serif;text-anchor:start">session_id : Column.ForeignKey</text>
    <text
       x="-50.58009"
       y="-312.46716"
       font-size="14.00"
       id="text3931"
       style="font-size:14px;font-family:Times, serif;text-anchor:start">user_id : Column.ForeignKey</text>
    <text
       x="-50.58009"
       y="-297.46716"
       font-size="14.00"
       id="text3933"
       style="font-size:14px;font-family:Times, serif;text-anchor:start">timestamp : Column.String</text>
    <polyline
       points="450.5,-83.5 646.5,-83.5 "
       id="polyline3935"
       style="fill:none;stroke:#000000"
       transform="matrix(1.3467512,0,0,0.99915341,-665.2115,-206.2476)" />
    <text
       x="-50.58009"
       y="-274.46716"
       font-size="14.00"
       id="text3937"
       style="font-size:14px;font-family:Times, serif;text-anchor:start">__repr__()</text>
    <text
       x="-50.58009"
       y="-259.46716"
       font-size="14.00"
       id="text3939"
       style="font-size:14px;font-family:Times, serif;text-anchor:start">refresh()</text>
    <text
       x="-50.58009"
       y="-244.46716"
       font-size="14.00"
       id="text3941"
       style="font-size:14px;font-family:Times, serif;text-anchor:start">session_expired()</text>
    <text
       x="-50.58009"
       y="-229.46716"
       font-size="14.00"
       id="text3943"
       style="font-size:14px;font-family:Times, serif;text-anchor:start">to_dict()</text>
    <text
       x="-50.58009"
       y="-214.46716"
       font-size="14.00"
       id="text3945"
       style="font-size:14px;font-family:Times, serif;text-anchor:start">usersession_init()</text>
  </g>
  <g
     transform="matrix(1.1976806,0,0,0.99796981,57.292246,175.71895)"
     id="g5330">
    <polygon
       points="422,-272.5 422,-226.5 231,-226.5 231,-226.5 231,-272.5 "
       id="polygon3950"
       style="fill:none;stroke:#000000"
       transform="matrix(1.0012849,0,0,1,3.4409769,488)" />
    <text
       x="357.82114"
       y="212.97385"
       font-size="14.00"
       id="text3952"
       style="font-size:12.9242897px;font-family:Times, serif;text-anchor:middle"
       transform="scale(0.92316352,1.0832317)">sqlalchemy.sql.schema.Column</text>
    <polyline
       points="231,-249.5 422,-249.5 "
       id="polyline3954"
       style="fill:none;stroke:#000000"
       transform="matrix(1.0012849,0,0,1,3.4409769,488)" />
  </g>
  <text
     transform="scale(1.0006423,0.99935812)"
     style="font-size:14.0089922px;font-family:Times, serif;text-anchor:middle"
     id="text3956"
     font-size="14.00"
     y="429.21027"
     x="446.60022" />
  <path
     style="fill:none;stroke:#000000"
     id="path3961"
     d="m 338.55988,399.92987 -146.92163,0.13312 0.17176,-189.03778" />
  <polygon
     transform="translate(-16.653006,530.45066)"
     style="fill:#000000;stroke:#000000"
     id="polygon3963"
     points="208.5,-331.705 204.5,-325.705 208.5,-319.705 208.5,-319.705 212.5,-325.705 " />
  <text
     transform="matrix(0,-1,1,0,0,0)"
     style="font-size:14px;font-family:Times, serif;text-anchor:middle;fill:#008000"
     id="text3965"
     font-size="14.00"
     y="187.00337"
     x="-283.48273">id</text>
  <path
     style="fill:none;stroke:#000000"
     id="path3970"
     d="M 384.35954,390.44175 384.7907,211.37299" />
  <polygon
     transform="translate(121.03791,508.08702)"
     style="fill:#000000;stroke:#000000"
     id="polygon3972"
     points="267.833,-303.291 263.833,-309.291 259.833,-303.291 263.833,-297.291 263.833,-297.291 " />
  <text
     transform="matrix(0,-1,1,0,0,0)"
     style="font-size:14px;font-family:Times, serif;text-anchor:middle;fill:#008000"
     id="text3974"
     font-size="14.00"
     y="376.29913"
     x="-285.00995">id</text>
  <path
     style="fill:none;stroke:#000000"
     id="path3979"
     d="M 415.69354,390.44175 416.1247,211.37298" />
  <polygon
     style="fill:#000000;stroke:#000000"
     id="polygon3981"
     points="299.167,-303.291 295.167,-309.291 291.167,-303.291 295.167,-297.291 295.167,-297.291 "
     transform="translate(121.03791,508.08702)" />
  <text
     transform="matrix(0,-1,1,0,0,0)"
     style="font-size:14px;font-family:Times, serif;text-anchor:middle;fill:#008000"
     id="text3983"
     font-size="14.00"
     y="409.66498"
     x="-288.76855">status</text>
  <path
     style="fill:none;stroke:#000000"
     id="path3988"
     d="m 447.02654,390.44175 0.32337,-179.39214" />
  <polygon
     style="fill:#000000;stroke:#000000"
     id="polygon3990"
     points="330.5,-303.291 326.5,-309.291 322.5,-303.291 326.5,-297.291 326.5,-297.291 "
     transform="translate(121.03791,508.08702)" />
  <text
     transform="matrix(0,-1,1,0,0,0)"
     style="font-size:14px;font-family:Times, serif;text-anchor:middle;fill:#008000"
     id="text3992"
     font-size="14.00"
     y="439.77036"
     x="-290.09863">agent_id</text>
  <path
     style="fill:none;stroke:#000000"
     id="path3997"
     d="m 478.35954,390.44175 0.21558,-179.49993" />
  <polygon
     style="fill:#000000;stroke:#000000"
     id="polygon3999"
     points="361.833,-303.291 357.833,-309.291 353.833,-303.291 357.833,-297.291 357.833,-297.291 "
     transform="translate(121.03791,508.08702)" />
  <text
     transform="matrix(0,-1,1,0,0,0)"
     style="font-size:14px;font-family:Times, serif;text-anchor:middle;fill:#008000"
     id="text4001"
     font-size="14.00"
     y="502.2413"
     x="-296.5228">result_archive</text>
  <path
     style="fill:none;stroke:#000000"
     id="path4006"
     d="M 509.69354,390.44175 510.1247,211.04961" />
  <polygon
     style="fill:#000000;stroke:#000000"
     id="polygon4008"
     points="393.167,-303.291 389.167,-309.291 385.167,-303.291 389.167,-297.291 389.167,-297.291 "
     transform="translate(121.03791,508.08702)" />
  <text
     transform="matrix(0,-1,1,0,0,0)"
     style="font-size:14px;font-family:Times, serif;text-anchor:middle;fill:#008000"
     id="text4010"
     font-size="14.00"
     y="471.25742"
     x="-293.09991">task_id</text>
  <path
     style="fill:none;stroke:#000000"
     id="path4015"
     d="m 566.92562,396.15852 49.68347,-0.22865 0,-185.12755" />
  <polygon
     transform="translate(175.70909,507.87429)"
     style="fill:#000000;stroke:#000000"
     id="polygon4017"
     points="440.9,-309.403 436.9,-303.403 440.9,-297.403 440.9,-297.403 444.9,-303.403 " />
  <text
     transform="matrix(0,-1,1,0,0,0)"
     style="font-size:14px;font-family:Times, serif;text-anchor:middle;fill:#008000"
     id="text4019"
     font-size="14.00"
     y="720.77393"
     x="-312.41812">result_files</text>
  <path
     style="fill:none;stroke:#000000"
     id="path4024"
     d="m 567.3695,401.69207 86.09058,-0.15244 -0.45732,-190.90675" />
  <polygon
     transform="translate(209.66292,508.08987)"
     style="fill:#000000;stroke:#000000"
     id="polygon4026"
     points="439.3,-303.42 443.3,-297.42 443.3,-297.42 447.3,-303.42 443.3,-309.42 " />
  <text
     transform="matrix(0,-1,1,0,0,0)"
     style="font-size:14px;font-family:Times, serif;text-anchor:middle;fill:#008000"
     id="text4028"
     font-size="14.00"
     y="610.97791"
     x="-296.75247">id</text>
  <path
     style="fill:none;stroke:#000000"
     id="path4033"
     d="m 567.14283,406.53963 123.01579,0.15243 -0.45731,-196.13362" />
  <polygon
     transform="translate(283.28345,507.98208)"
     style="fill:#000000;stroke:#000000"
     id="polygon4035"
     points="445.7,-297.342 445.7,-297.342 449.7,-303.342 445.7,-309.342 441.7,-303.342 " />
  <text
     transform="matrix(0,-1,1,0,0,0)"
     style="font-size:14px;font-family:Times, serif;text-anchor:middle;fill:#008000"
     id="text4037"
     font-size="14.00"
     y="645.69983"
     x="-299.94025">start_script</text>
  <path
     style="fill:none;stroke:#000000"
     id="path4042"
     d="m 566.93062,411.31097 162.21312,0.0762 0,-200.90162" />
  <polygon
     transform="translate(241.46095,507.87429)"
     style="fill:#000000;stroke:#000000"
     id="polygon4044"
     points="448.1,-297.11 448.1,-297.11 452.1,-303.11 448.1,-309.11 444.1,-303.11 " />
  <text
     transform="matrix(0,-1,1,0,0,0)"
     style="font-size:14px;font-family:Times, serif;text-anchor:middle;fill:#008000"
     id="text4046"
     font-size="14.00"
     y="682.45905"
     x="-301.68372">max_time</text>
  <path
     style="fill:none;stroke:#000000;stroke-width:1.05419016"
     id="path4051"
     d="m 338.41094,408.63842 -181.41108,0.60976 0,175.37314" />
  <polygon
     transform="translate(100.95836,778.1552)"
     style="fill:#000000;stroke:#000000"
     id="polygon4053"
     points="60,-188.407 56.0001,-194.407 56.0001,-194.407 52,-188.407 56,-182.407 " />
  <text
     transform="matrix(0,-1,1,0,0,0)"
     style="font-size:14px;font-family:Times, serif;text-anchor:middle;fill:#008000"
     id="text4055"
     font-size="14.00"
     y="149.42598"
     x="-492.03009">id</text>
  <path
     style="fill:none;stroke:#000000"
     id="path4060"
     d="m 338.37388,419.00609 -112.84734,0.22866 0,165.70223" />
  <polygon
     transform="translate(120.52654,778.43475)"
     style="fill:#000000;stroke:#000000"
     id="polygon4062"
     points="105,-182.105 109,-188.105 105,-194.105 105,-194.105 101,-188.105 " />
  <text
     transform="matrix(0,-1,1,0,0,0)"
     style="font-size:14px;font-family:Times, serif;text-anchor:middle;fill:#008000"
     id="text4064"
     font-size="14.00"
     y="217.60236"
     x="-495.46527">version</text>
  <path
     style="fill:none;stroke:#000000"
     id="path4069"
     d="m 338.41009,428.00609 -63.88355,0.22866 0,156.73523" />
  <polygon
     transform="translate(120.52654,778.43475)"
     style="fill:#000000;stroke:#000000"
     id="polygon4071"
     points="154,-182.072 158,-188.072 154,-194.072 154,-194.072 150,-188.072 " />
  <text
     transform="matrix(0,-1,1,0,0,0)"
     style="font-size:14px;font-family:Times, serif;text-anchor:middle;fill:#008000"
     id="text4073"
     font-size="14.00"
     y="267.65036"
     x="-497.76581">name</text>
  <path
     style="fill:none;stroke:#000000"
     id="path4078"
     d="m 383.35954,436.86475 0,148.14899" />
  <polygon
     transform="translate(120.52654,786.43475)"
     style="fill:#000000;stroke:#000000"
     id="polygon4080"
     points="262.833,-189.671 266.833,-195.671 262.833,-201.671 262.833,-201.671 258.833,-195.671 " />
  <text
     transform="matrix(0,-1,1,0,0,0)"
     style="font-size:14px;font-family:Times, serif;text-anchor:middle;fill:#008000"
     id="text4082"
     font-size="14.00"
     y="407.26074"
     x="-507.15906">pw_hash</text>
  <path
     style="fill:none;stroke:#000000"
     id="path4087"
     d="m 415.19354,436.86475 0,148.14899" />
  <polygon
     transform="translate(120.52654,786.43475)"
     style="fill:#000000;stroke:#000000"
     id="polygon4089"
     points="294.667,-189.671 298.667,-195.671 294.667,-201.671 294.667,-201.671 290.667,-195.671 " />
  <text
     transform="matrix(0,-1,1,0,0,0)"
     style="font-size:14px;font-family:Times, serif;text-anchor:middle;fill:#008000"
     id="text4091"
     font-size="14.00"
     y="376.83218"
     x="-507.42899">id</text>
  <path
     style="fill:none;stroke:#000000"
     id="path4096"
     d="m 447.02654,436.86475 0,148.14899" />
  <polygon
     transform="translate(120.52654,786.43475)"
     style="fill:#000000;stroke:#000000"
     id="polygon4098"
     points="326.5,-189.671 330.5,-195.671 326.5,-201.671 326.5,-201.671 322.5,-195.671 " />
  <text
     transform="matrix(0,-1,1,0,0,0)"
     style="font-size:14px;font-family:Times, serif;text-anchor:middle;fill:#008000"
     id="text4100"
     font-size="14.00"
     y="472.31592"
     x="-510.30756">phone</text>
  <path
     style="fill:none;stroke:#000000"
     id="path4105"
     d="m 478.85954,436.86475 0,148.5376" />
  <polygon
     transform="translate(120.52654,786.43475)"
     style="fill:#000000;stroke:#000000"
     id="polygon4107"
     points="358.333,-189.671 362.333,-195.671 358.333,-201.671 358.333,-201.671 354.333,-195.671 " />
  <text
     transform="matrix(0,-1,1,0,0,0)"
     style="font-size:14px;font-family:Times, serif;text-anchor:middle;fill:#008000"
     id="text4109"
     font-size="14.00"
     y="440.6058"
     x="-506.64365">username</text>
  <path
     style="fill:none;stroke:#000000"
     id="path4114"
     d="m 510.69354,436.86475 0,148.14899" />
  <polygon
     transform="translate(120.52654,786.43475)"
     style="fill:#000000;stroke:#000000"
     id="polygon4116"
     points="390.167,-189.671 394.167,-195.671 390.167,-201.671 390.167,-201.671 386.167,-195.671 " />
  <text
     transform="matrix(0,-1,1,0,0,0)"
     style="font-size:14px;font-family:Times, serif;text-anchor:middle;fill:#008000"
     id="text4118"
     font-size="14.00"
     y="505.41083"
     x="-508.69232">mail</text>
  <path
     style="fill:none;stroke:#000000"
     id="path4123"
     d="m 567.1904,416.92987 160.63614,0.30488 0,167.41791" />
  <polygon
     transform="translate(120.52654,786.43475)"
     style="fill:#000000;stroke:#000000"
     id="polygon4125"
     points="607.3,-189.773 611.3,-195.773 607.3,-201.773 607.3,-201.773 603.3,-195.773 " />
  <text
     transform="matrix(0,-1,1,0,0,0)"
     style="font-size:14px;font-family:Times, serif;text-anchor:middle;fill:#008000"
     id="text4127"
     font-size="14.00"
     y="719.61444"
     x="-502.05191">session_id</text>
  <path
     style="fill:none;stroke:#000000"
     id="path4132"
     d="m 567.70793,421.85366 120.91861,0.38109 0,162.66491" />
  <polygon
     transform="translate(120.52654,786.12823)"
     style="fill:#000000;stroke:#000000"
     id="polygon4134"
     points="564.1,-195.526 568.1,-189.526 572.1,-195.526 568.1,-201.526 568.1,-201.526 " />
  <text
     transform="matrix(0,-1,1,0,0,0)"
     style="font-size:14px;font-family:Times, serif;text-anchor:middle;fill:#008000"
     id="text4136"
     font-size="14.00"
     y="604.89111"
     x="-507.56665">id</text>
  <path
     style="fill:none;stroke:#000000"
     id="path4141"
     d="m 567.36672,426.625 82.05982,0.60975 0,157.35991" />
  <polygon
     transform="translate(120.52654,786.43475)"
     style="fill:#000000;stroke:#000000"
     id="polygon4143"
     points="528.9,-189.831 532.9,-195.831 528.9,-201.831 528.9,-201.831 524.9,-195.831 " />
  <text
     transform="matrix(0,-1,1,0,0,0)"
     style="font-size:14px;font-family:Times, serif;text-anchor:middle;fill:#008000"
     id="text4145"
     font-size="14.00"
     y="641.49323"
     x="-506.98285">user_id</text>
  <path
     style="fill:none;stroke:#000000"
     id="path4150"
     d="m 567.14218,431.70122 43.08436,0.53353 0,152.36491" />
  <polygon
     transform="translate(120.52654,786.43475)"
     style="fill:#000000;stroke:#000000"
     id="polygon4152"
     points="489.7,-189.826 493.7,-195.826 489.7,-201.826 489.7,-201.826 485.7,-195.826 " />
  <text
     transform="matrix(0,-1,1,0,0,0)"
     style="font-size:14px;font-family:Times, serif;text-anchor:middle;fill:#008000"
     id="text4154"
     font-size="14.00"
     y="681.45551"
     x="-505.05292">timestamp</text>
</svg>
