<?xml version="1.0" encoding="UTF-8" standalone="no"?>
<!-- Generated by graphviz version 2.38.0 (20140413.2041)
 -->

<!-- Title: classes_Models Pages: 1 -->

<svg
   xmlns:dc="http://purl.org/dc/elements/1.1/"
   xmlns:cc="http://creativecommons.org/ns#"
   xmlns:rdf="http://www.w3.org/1999/02/22-rdf-syntax-ns#"
   xmlns:svg="http://www.w3.org/2000/svg"
   xmlns="http://www.w3.org/2000/svg"
   xmlns:sodipodi="http://sodipodi.sourceforge.net/DTD/sodipodi-0.dtd"
   xmlns:inkscape="http://www.inkscape.org/namespaces/inkscape"
   width="318.86383mm"
   height="288.26443mm"
   viewBox="0 0 903.18227 817.12753"
   id="svg3768"
   version="1.1"
   inkscape:version="0.91 r13725"
   sodipodi:docname="classes_diagram_inkscape.svg">
  <metadata
     id="metadata4160">
    <rdf:RDF>
      <cc:Work
         rdf:about="">
        <dc:format>image/svg+xml</dc:format>
        <dc:type
           rdf:resource="http://purl.org/dc/dcmitype/StillImage" />
        <dc:title></dc:title>
      </cc:Work>
    </rdf:RDF>
  </metadata>
  <defs
     id="defs4158" />
  <sodipodi:namedview
     pagecolor="#ffffff"
     bordercolor="#666666"
     borderopacity="1"
     objecttolerance="10"
     gridtolerance="10"
     guidetolerance="10"
     inkscape:pageopacity="0"
     inkscape:pageshadow="2"
     inkscape:window-width="3840"
     inkscape:window-height="2033"
     id="namedview4156"
     showgrid="false"
     inkscape:zoom="1.7231093"
     inkscape:cx="564.83073"
     inkscape:cy="510.7047"
     inkscape:window-x="-10"
     inkscape:window-y="0"
     inkscape:window-maximized="1"
     inkscape:current-layer="svg3768"
     inkscape:snap-global="true"
     units="mm"
     fit-margin-top="0"
     fit-margin-left="0"
     fit-margin-right="0"
     fit-margin-bottom="0" />
  <polygon
     style="fill:#ffffff;stroke:none"
     id="polygon3773"
     points="-4,4 -4,-488 656.5,-488 656.5,4 -4,4 "
     transform="matrix(1.3684572,0,0,1.6608283,5.1554206,810.48421)" />
  <g
     id="g5463"
     transform="translate(100.52654,175.23475)">
    <polygon
       transform="matrix(1.2829347,0,0,0.99897592,-68.357468,353.97123)"
       style="fill:none;stroke:#000000"
       id="polygon3778"
       points="7,-461 214,-461 214,-332 7,-332 7,-332 " />
    <text
       style="font-size:14px;font-family:Times, serif;text-anchor:middle"
       id="text3780"
       font-size="14.00"
       y="-91.422714"
       x="74.454514">models.Agent</text>
    <polyline
       transform="matrix(1.2829347,0,0,0.99897592,-68.357468,353.97123)"
       style="fill:none;stroke:#000000"
       id="polyline3782"
       points="7,-438 214,-438 " />
    <text
       style="font-size:14px;font-family:Times, serif;text-anchor:start"
       id="text3784"
       font-size="14.00"
       y="-68.422714"
       x="-51.445454">__tablename__ : str</text>
    <text
       style="font-size:14px;font-family:Times, serif;text-anchor:start"
       id="text3786"
       font-size="14.00"
       y="-53.42271"
       x="-51.445454">id : Column.Integer</text>
    <text
       style="font-size:14px;font-family:Times, serif;text-anchor:start"
       id="text3788"
       font-size="14.00"
       y="-38.42271"
       x="-51.445454">subtasks : sqlalchemy.orm.relation</text>
    <polyline
       transform="matrix(1.2829347,0,0,0.99897592,-68.357468,353.97123)"
       style="fill:none;stroke:#000000"
       id="polyline3790"
       points="7,-385 214,-385 " />
    <text
       style="font-size:14px;font-family:Times, serif;text-anchor:start"
       id="text3792"
       font-size="14.00"
       y="-15.422714"
       x="-51.445454">__init__()</text>
    <text
       style="font-size:14px;font-family:Times, serif;text-anchor:start"
       id="text3794"
       font-size="14.00"
       y="-0.42271444"
       x="-51.445454">__repr__()</text>
    <text
       style="font-size:14px;font-family:Times, serif;text-anchor:start"
       id="text3796"
       font-size="14.00"
       y="14.577284"
       x="-51.445454">to_dict()</text>
  </g>
  <polygon
     points="232.5,-483.5 420.5,-483.5 420.5,-309.5 232.5,-309.5 232.5,-309.5 "
     id="polygon3801"
     style="fill:none;stroke:#000000"
     transform="matrix(1.3996988,0,0,0.9989613,-3.8029784,507.39564)" />
  <text
     x="453.9267"
     y="39.507488"
     font-size="14.00"
     id="text3803"
     style="font-size:14px;font-family:Times, serif;text-anchor:middle">models.Subtask</text>
  <polyline
     points="232.5,-460.5 420.5,-460.5 "
     id="polyline3805"
     style="fill:none;stroke:#000000"
     transform="matrix(1.3984873,0,0,0.99946174,-3.5728584,507.59406)" />
  <text
     x="329.52655"
     y="62.507507"
     font-size="14.00"
     id="text3807"
     style="font-size:14px;font-family:Times, serif;text-anchor:start">__tablename__ : str</text>
  <text
     x="329.52655"
     y="77.507507"
     font-size="14.00"
     id="text3809"
     style="font-size:14px;font-family:Times, serif;text-anchor:start">id : Column.Integer</text>
  <text
     x="329.52655"
     y="92.5075"
     font-size="14.00"
     id="text3811"
     style="font-size:14px;font-family:Times, serif;text-anchor:start">agent_id : Column.ForeignKey</text>
  <text
     x="329.52655"
     y="107.50749"
     font-size="14.00"
     id="text3813"
     style="font-size:14px;font-family:Times, serif;text-anchor:start">task_id : Column.ForeignKey</text>
  <text
     x="329.52655"
     y="122.50749"
     font-size="14.00"
     id="text3815"
     style="font-size:14px;font-family:Times, serif;text-anchor:start">result_archive : Column.String</text>
  <text
     x="329.52655"
     y="137.50749"
     font-size="14.00"
     id="text3817"
     style="font-size:14px;font-family:Times, serif;text-anchor:start">status : Column.Integer</text>
  <polyline
     points="232.5,-362.5 420.5,-362.5 "
     id="polyline3819"
     style="fill:none;stroke:#000000"
     transform="matrix(1.3984873,0,0,0.99946174,-3.5728584,507.59406)" />
  <text
     x="329.52655"
     y="160.50751"
     font-size="14.00"
     id="text3821"
     style="font-size:14px;font-family:Times, serif;text-anchor:start">__init__()</text>
  <text
     x="329.52655"
     y="175.50751"
     font-size="14.00"
     id="text3823"
     style="font-size:14px;font-family:Times, serif;text-anchor:start">__repr__()</text>
  <text
     x="329.52655"
     y="190.50749"
     font-size="14.00"
     id="text3825"
     style="font-size:14px;font-family:Times, serif;text-anchor:start">to_dict()</text>
  <g
     id="g5488"
     transform="translate(142.12654,175.23475)">
    <polygon
       transform="matrix(1.2424354,0,0,0.99934322,-82.96215,332.03277)"
       style="fill:none;stroke:#000000"
       id="polygon3830"
       points="438.5,-309.5 438.5,-483.5 652.5,-483.5 652.5,-309.5 438.5,-309.5 " />
    <text
       style="font-size:14px;font-family:Times, serif;text-anchor:middle"
       id="text3832"
       font-size="14.00"
       y="-136.00681"
       x="592.78827">models.Task</text>
    <polyline
       transform="matrix(1.2424354,0,0,0.99934322,-82.96215,332.03277)"
       style="fill:none;stroke:#000000"
       id="polyline3834"
       points="438.5,-460.5 652.5,-460.5 " />
    <text
       style="font-size:14px;font-family:Times, serif;text-anchor:start"
       id="text3836"
       font-size="14.00"
       y="-113.00679"
       x="469.78864">__tablename__ : str</text>
    <text
       style="font-size:14px;font-family:Times, serif;text-anchor:start"
       id="text3838"
       font-size="14.00"
       y="-98.006798"
       x="469.78864">id : Column.Integer</text>
    <text
       style="font-size:14px;font-family:Times, serif;text-anchor:start"
       id="text3840"
       font-size="14.00"
       y="-83.006798"
       x="469.78864">max_time : Column.Integer</text>
    <text
       style="font-size:14px;font-family:Times, serif;text-anchor:start"
       id="text3842"
       font-size="14.00"
       y="-68.006798"
       x="469.78864">result_files : Column.String</text>
    <text
       style="font-size:14px;font-family:Times, serif;text-anchor:start"
       id="text3844"
       font-size="14.00"
       y="-53.006805"
       x="469.78864">start_script : Column.String</text>
    <text
       style="font-size:14px;font-family:Times, serif;text-anchor:start"
       id="text3846"
       font-size="14.00"
       y="-38.006805"
       x="469.78864">subtasks : sqlalchemy.qorm.relation</text>
    <polyline
       transform="matrix(1.2424354,0,0,0.99934322,-82.96215,332.03277)"
       style="fill:none;stroke:#000000"
       id="polyline3848"
       points="438.5,-362.5 652.5,-362.5 " />
    <text
       style="font-size:14px;font-family:Times, serif;text-anchor:start"
       id="text3850"
       font-size="14.00"
       y="-15.006805"
       x="469.78864">__init__()</text>
    <text
       style="font-size:14px;font-family:Times, serif;text-anchor:start"
       id="text3852"
       font-size="14.00"
       y="-0.0068042409"
       x="469.78864">__repr__()</text>
    <text
       style="font-size:14px;font-family:Times, serif;text-anchor:start"
       id="text3854"
       font-size="14.00"
       y="14.993196"
       x="469.78864">to_dict()</text>
  </g>
  <g
     id="g5348"
     transform="translate(101.66159,947.23823)">
    <polygon
       transform="matrix(1.3030286,0,0,0.99918943,-59.741117,-168.30212)"
       style="fill:none;stroke:#000000"
       id="polygon3859"
       points="203,-8 0,-8 0,-8 0,-182 203,-182 " />
    <text
       style="font-size:14px;font-family:Times, serif;text-anchor:middle"
       id="text3861"
       font-size="14.00"
       y="-333.42511"
       x="67.989105">models.Trait</text>
    <polyline
       transform="matrix(1.3030286,0,0,0.99918943,-59.741117,-168.30212)"
       style="fill:none;stroke:#000000"
       id="polyline3863"
       points="0,-159 203,-159 " />
    <text
       style="font-size:14px;font-family:Times, serif;text-anchor:start"
       id="text3865"
       font-size="14.00"
       y="-312.02512"
       x="-51.811638">__tablename__ : str</text>
    <text
       style="font-size:14px;font-family:Times, serif;text-anchor:start"
       id="text3867"
       font-size="14.00"
       y="-297.02512"
       x="-51.811638">id : Column.Integer</text>
    <text
       style="font-size:14px;font-family:Times, serif;text-anchor:start"
       id="text3869"
       font-size="14.00"
       y="-282.02512"
       x="-51.811638">name : Column.String</text>
    <text
       style="font-size:14px;font-family:Times, serif;text-anchor:start"
       id="text3871"
       font-size="14.00"
       y="-267.02512"
       x="-51.811638">version : Column.String</text>
    <text
       style="font-size:14px;font-family:Times, serif;text-anchor:start"
       id="text3873"
       font-size="14.00"
       y="-252.02512"
       x="-51.811638">agents : sqlalchemy.qorm.relation</text>
    <text
       style="font-size:14px;font-family:Times, serif;text-anchor:start"
       id="text3875"
       font-size="14.00"
       y="-237.02512"
       x="-51.811638">tasks : sqlalchemy.qorm.relation</text>
    <polyline
       transform="matrix(1.3030286,0,0,0.99918943,-59.741117,-168.30212)"
       style="fill:none;stroke:#000000"
       id="polyline3877"
       points="0,-61 203,-61 " />
    <text
       style="font-size:14px;font-family:Times, serif;text-anchor:start"
       id="text3879"
       font-size="14.00"
       y="-214.02512"
       x="-51.811638">__init__()</text>
    <text
       style="font-size:14px;font-family:Times, serif;text-anchor:start"
       id="text3881"
       font-size="14.00"
       y="-199.02512"
       x="-51.811638">__repr__()</text>
    <text
       style="font-size:14px;font-family:Times, serif;text-anchor:start"
       id="text3883"
       font-size="14.00"
       y="-184.02512"
       x="-51.811638">to_dict()</text>
  </g>
  <g
     id="g5377"
     transform="translate(381.25352,976.40659)">
    <polygon
       transform="matrix(1.2495997,0,0,0.99937827,-334.68109,-189.84216)"
       style="fill:none;stroke:#000000"
       id="polygon3888"
       points="432.5,-189.5 432.5,-0.5 220.5,-0.5 220.5,-0.5 220.5,-189.5 " />
    <text
       style="font-size:14px;font-family:Times, serif;text-anchor:middle"
       id="text3890"
       font-size="14.00"
       y="-364.0831"
       x="75.596863">models.User</text>
    <polyline
       transform="matrix(1.2495997,0,0,0.99937827,-334.68109,-189.84216)"
       style="fill:none;stroke:#000000"
       id="polyline3892"
       points="220.5,-166.5 432.5,-166.5 " />
    <text
       style="font-size:14px;font-family:Times, serif;text-anchor:start"
       id="text3894"
       font-size="14.00"
       y="-341.0831"
       x="-51.20311">__tablename__ : str</text>
    <text
       style="font-size:14px;font-family:Times, serif;text-anchor:start"
       id="text3896"
       font-size="14.00"
       y="-326.0831"
       x="-51.20311">id : Column.Integer</text>
    <text
       style="font-size:14px;font-family:Times, serif;text-anchor:start"
       id="text3898"
       font-size="14.00"
       y="-311.0831"
       x="-51.20311">mail : Column.String</text>
    <text
       style="font-size:14px;font-family:Times, serif;text-anchor:start"
       id="text3900"
       font-size="14.00"
       y="-296.0831"
       x="-51.20311">phone : Column.String</text>
    <text
       style="font-size:14px;font-family:Times, serif;text-anchor:start"
       id="text3902"
       font-size="14.00"
       y="-281.0831"
       x="-51.20311">pw_hash : Column.String</text>
    <text
       style="font-size:14px;font-family:Times, serif;text-anchor:start"
       id="text3904"
       font-size="14.00"
       y="-266.0831"
       x="-51.20311">username : Column.String</text>
    <text
       style="font-size:14px;font-family:Times, serif;text-anchor:start"
       id="text3906"
       font-size="14.00"
       y="-251.0831"
       x="-51.20311">sessions : sqlalchemy.qorm.relation</text>
    <polyline
       transform="matrix(1.2495997,0,0,0.99937827,-334.68109,-189.84216)"
       style="fill:none;stroke:#000000"
       id="polyline3908"
       points="220.5,-53.5 432.5,-53.5 " />
    <text
       style="font-size:14px;font-family:Times, serif;text-anchor:start"
       id="text3910"
       font-size="14.00"
       y="-228.0831"
       x="-51.20311">__init__()</text>
    <text
       style="font-size:14px;font-family:Times, serif;text-anchor:start"
       id="text3912"
       font-size="14.00"
       y="-213.0831"
       x="-51.20311">__repr__()</text>
    <text
       style="font-size:14px;font-family:Times, serif;text-anchor:start"
       id="text3914"
       font-size="14.00"
       y="-198.0831"
       x="-51.20311">to_dict()</text>
  </g>
  <g
     id="g5437"
     transform="translate(663.08541,992.7282)">
    <polygon
       transform="matrix(1.3467512,0,0,0.99915341,-665.2115,-206.2476)"
       style="fill:none;stroke:#000000"
       id="polygon3919"
       points="450.5,-0.5 450.5,-189.5 646.5,-189.5 646.5,-0.5 450.5,-0.5 " />
    <text
       style="font-size:14px;font-family:Times, serif;text-anchor:middle"
       id="text3921"
       font-size="14.00"
       y="-380.46716"
       x="76.219879">models.UserSession</text>
    <polyline
       transform="matrix(1.3467512,0,0,0.99915341,-665.2115,-206.2476)"
       style="fill:none;stroke:#000000"
       id="polyline3923"
       points="450.5,-166.5 646.5,-166.5 " />
    <text
       style="font-size:14px;font-family:Times, serif;text-anchor:start"
       id="text3925"
       font-size="14.00"
       y="-357.46716"
       x="-50.58009">__tablename__ : str</text>
    <text
       style="font-size:14px;font-family:Times, serif;text-anchor:start"
       id="text3927"
       font-size="14.00"
       y="-342.46716"
       x="-50.58009">id : Column.Integer</text>
    <text
       style="font-size:14px;font-family:Times, serif;text-anchor:start"
       id="text3929"
       font-size="14.00"
       y="-327.46716"
       x="-50.58009">session_id : Column.ForeignKey</text>
    <text
       style="font-size:14px;font-family:Times, serif;text-anchor:start"
       id="text3931"
       font-size="14.00"
       y="-312.46716"
       x="-50.58009">user_id : Column.ForeignKey</text>
    <text
       style="font-size:14px;font-family:Times, serif;text-anchor:start"
       id="text3933"
       font-size="14.00"
       y="-297.46716"
       x="-50.58009">timestamp : Column.String</text>
    <polyline
       transform="matrix(1.3467512,0,0,0.99915341,-665.2115,-206.2476)"
       style="fill:none;stroke:#000000"
       id="polyline3935"
       points="450.5,-83.5 646.5,-83.5 " />
    <text
       style="font-size:14px;font-family:Times, serif;text-anchor:start"
       id="text3937"
       font-size="14.00"
       y="-274.46716"
       x="-50.58009">__repr__()</text>
    <text
       style="font-size:14px;font-family:Times, serif;text-anchor:start"
       id="text3939"
       font-size="14.00"
       y="-259.46716"
       x="-50.58009">refresh()</text>
    <text
       style="font-size:14px;font-family:Times, serif;text-anchor:start"
       id="text3941"
       font-size="14.00"
       y="-244.46716"
       x="-50.58009">session_expired()</text>
    <text
       style="font-size:14px;font-family:Times, serif;text-anchor:start"
       id="text3943"
       font-size="14.00"
       y="-229.46716"
       x="-50.58009">to_dict()</text>
    <text
       style="font-size:14px;font-family:Times, serif;text-anchor:start"
       id="text3945"
       font-size="14.00"
       y="-214.46716"
       x="-50.58009">usersession_init()</text>
  </g>
  <g
     id="g5330"
     transform="matrix(1.1976806,0,0,0.99796981,57.292246,175.71895)">
    <polygon
       transform="matrix(1.0012849,0,0,1,3.4409769,488)"
       style="fill:none;stroke:#000000"
       id="polygon3950"
       points="422,-272.5 422,-226.5 231,-226.5 231,-226.5 231,-272.5 " />
    <text
       transform="scale(0.92316352,1.0832317)"
       style="font-size:12.9242897px;font-family:Times, serif;text-anchor:middle"
       id="text3952"
       font-size="14.00"
       y="212.97385"
       x="357.82114">sqlalchemy.sql.schema.Column</text>
    <polyline
       transform="matrix(1.0012849,0,0,1,3.4409769,488)"
       style="fill:none;stroke:#000000"
       id="polyline3954"
       points="231,-249.5 422,-249.5 " />
  </g>
  <text
     x="446.60022"
     y="429.21027"
     font-size="14.00"
     id="text3956"
     style="font-size:14.0089922px;font-family:Times, serif;text-anchor:middle"
     transform="scale(1.0006423,0.99935812)" />
  <path
     d="m 338.55988,399.92987 -146.92163,0.13312 0.17176,-189.03778"
     id="path3961"
     inkscape:connector-curvature="0"
     style="fill:none;stroke:#000000"
     sodipodi:nodetypes="ccc" />
  <polygon
     points="208.5,-331.705 204.5,-325.705 208.5,-319.705 208.5,-319.705 212.5,-325.705 "
     id="polygon3963"
     style="fill:#000000;stroke:#000000"
     transform="translate(-16.653006,530.45066)" />
  <text
     x="-283.48273"
     y="187.00337"
     font-size="14.00"
     id="text3965"
     style="font-size:14px;font-family:Times, serif;text-anchor:middle;fill:#008000"
     transform="matrix(0,-1,1,0,0,0)">id</text>
  <path
     d="M 384.35954,390.44175 384.7907,211.37299"
     id="path3970"
     inkscape:connector-curvature="0"
     style="fill:none;stroke:#000000"
     sodipodi:nodetypes="cc" />
  <polygon
     points="267.833,-303.291 263.833,-309.291 259.833,-303.291 263.833,-297.291 263.833,-297.291 "
     id="polygon3972"
     style="fill:#000000;stroke:#000000"
     transform="translate(121.03791,508.08702)" />
  <text
     x="-285.00995"
     y="376.29913"
     font-size="14.00"
     id="text3974"
     style="font-size:14px;font-family:Times, serif;text-anchor:middle;fill:#008000"
     transform="matrix(0,-1,1,0,0,0)">id</text>
  <path
     sodipodi:nodetypes="cc"
     d="M 415.69354,390.44175 416.1247,211.37298"
     id="path3979"
     inkscape:connector-curvature="0"
     style="fill:none;stroke:#000000" />
  <polygon
     transform="translate(121.03791,508.08702)"
     points="299.167,-303.291 295.167,-309.291 291.167,-303.291 295.167,-297.291 295.167,-297.291 "
     id="polygon3981"
     style="fill:#000000;stroke:#000000" />
  <text
     x="-288.76855"
     y="409.66498"
     font-size="14.00"
     id="text3983"
     style="font-size:14px;font-family:Times, serif;text-anchor:middle;fill:#008000"
     transform="matrix(0,-1,1,0,0,0)">status</text>
  <path
     sodipodi:nodetypes="cc"
     d="m 447.02654,390.44175 0.32337,-179.39214"
     id="path3988"
     inkscape:connector-curvature="0"
     style="fill:none;stroke:#000000" />
  <polygon
     transform="translate(121.03791,508.08702)"
     points="330.5,-303.291 326.5,-309.291 322.5,-303.291 326.5,-297.291 326.5,-297.291 "
     id="polygon3990"
     style="fill:#000000;stroke:#000000" />
  <text
     x="-290.09863"
     y="439.77036"
     font-size="14.00"
     id="text3992"
     style="font-size:14px;font-family:Times, serif;text-anchor:middle;fill:#008000"
     transform="matrix(0,-1,1,0,0,0)">agent_id</text>
  <path
     sodipodi:nodetypes="cc"
     d="m 478.35954,390.44175 0.21558,-179.49993"
     id="path3997"
     inkscape:connector-curvature="0"
     style="fill:none;stroke:#000000" />
  <polygon
     transform="translate(121.03791,508.08702)"
     points="361.833,-303.291 357.833,-309.291 353.833,-303.291 357.833,-297.291 357.833,-297.291 "
     id="polygon3999"
     style="fill:#000000;stroke:#000000" />
  <text
     x="-296.5228"
     y="502.2413"
     font-size="14.00"
     id="text4001"
     style="font-size:14px;font-family:Times, serif;text-anchor:middle;fill:#008000"
     transform="matrix(0,-1,1,0,0,0)">result_archive</text>
  <path
     sodipodi:nodetypes="cc"
     d="M 509.69354,390.44175 510.1247,211.04961"
     id="path4006"
     inkscape:connector-curvature="0"
     style="fill:none;stroke:#000000" />
  <polygon
     transform="translate(121.03791,508.08702)"
     points="393.167,-303.291 389.167,-309.291 385.167,-303.291 389.167,-297.291 389.167,-297.291 "
     id="polygon4008"
     style="fill:#000000;stroke:#000000" />
  <text
     x="-293.09991"
     y="471.25742"
     font-size="14.00"
     id="text4010"
     style="font-size:14px;font-family:Times, serif;text-anchor:middle;fill:#008000"
     transform="matrix(0,-1,1,0,0,0)">task_id</text>
  <path
     d="m 566.92562,396.15852 49.68347,-0.22865 0,-185.12755"
     id="path4015"
     inkscape:connector-curvature="0"
     style="fill:none;stroke:#000000"
     sodipodi:nodetypes="ccc" />
  <polygon
     points="440.9,-309.403 436.9,-303.403 440.9,-297.403 440.9,-297.403 444.9,-303.403 "
     id="polygon4017"
     style="fill:#000000;stroke:#000000"
     transform="translate(175.70909,507.87429)" />
  <text
     x="-312.41812"
     y="720.77393"
     font-size="14.00"
     id="text4019"
     style="font-size:14px;font-family:Times, serif;text-anchor:middle;fill:#008000"
     transform="matrix(0,-1,1,0,0,0)">result_files</text>
  <path
     d="m 567.3695,401.69207 86.09058,-0.15244 -0.45732,-190.90675"
     id="path4024"
     inkscape:connector-curvature="0"
     style="fill:none;stroke:#000000"
     sodipodi:nodetypes="ccc" />
  <polygon
     points="439.3,-303.42 443.3,-297.42 443.3,-297.42 447.3,-303.42 443.3,-309.42 "
     id="polygon4026"
     style="fill:#000000;stroke:#000000"
     transform="translate(209.66292,508.08987)" />
  <text
     x="-296.75247"
     y="610.97791"
     font-size="14.00"
     id="text4028"
     style="font-size:14px;font-family:Times, serif;text-anchor:middle;fill:#008000"
     transform="matrix(0,-1,1,0,0,0)">id</text>
  <path
     d="m 567.14283,406.53963 123.01579,0.15243 -0.45731,-196.13362"
     id="path4033"
     inkscape:connector-curvature="0"
     style="fill:none;stroke:#000000"
     sodipodi:nodetypes="ccc" />
  <polygon
     points="445.7,-297.342 445.7,-297.342 449.7,-303.342 445.7,-309.342 441.7,-303.342 "
     id="polygon4035"
     style="fill:#000000;stroke:#000000"
     transform="translate(283.28345,507.98208)" />
  <text
     x="-299.94025"
     y="645.69983"
     font-size="14.00"
     id="text4037"
     style="font-size:14px;font-family:Times, serif;text-anchor:middle;fill:#008000"
     transform="matrix(0,-1,1,0,0,0)">start_script</text>
  <path
     d="m 566.93062,411.31097 162.21312,0.0762 0,-200.90162"
     id="path4042"
     inkscape:connector-curvature="0"
     style="fill:none;stroke:#000000"
     sodipodi:nodetypes="ccc" />
  <polygon
     points="448.1,-297.11 448.1,-297.11 452.1,-303.11 448.1,-309.11 444.1,-303.11 "
     id="polygon4044"
     style="fill:#000000;stroke:#000000"
     transform="translate(241.46095,507.87429)" />
  <text
     x="-301.68372"
     y="682.45905"
     font-size="14.00"
     id="text4046"
     style="font-size:14px;font-family:Times, serif;text-anchor:middle;fill:#008000"
     transform="matrix(0,-1,1,0,0,0)">max_time</text>
  <path
     d="m 338.41094,408.63842 -181.41108,0.60976 0,175.37314"
     id="path4051"
     inkscape:connector-curvature="0"
     style="fill:none;stroke:#000000;stroke-width:1.05419016"
     sodipodi:nodetypes="ccc" />
  <polygon
     points="60,-188.407 56.0001,-194.407 56.0001,-194.407 52,-188.407 56,-182.407 "
     id="polygon4053"
     style="fill:#000000;stroke:#000000"
     transform="translate(100.95836,778.1552)" />
  <text
     x="-492.03009"
     y="149.42598"
     font-size="14.00"
     id="text4055"
     style="font-size:14px;font-family:Times, serif;text-anchor:middle;fill:#008000"
     transform="matrix(0,-1,1,0,0,0)">id</text>
  <path
     d="m 338.37388,419.00609 -112.84734,0.22866 0,165.70223"
     id="path4060"
     inkscape:connector-curvature="0"
     style="fill:none;stroke:#000000"
     sodipodi:nodetypes="ccc" />
  <polygon
     points="105,-182.105 109,-188.105 105,-194.105 105,-194.105 101,-188.105 "
     id="polygon4062"
     style="fill:#000000;stroke:#000000"
     transform="translate(120.52654,778.43475)" />
  <text
     x="-495.46527"
     y="217.60236"
     font-size="14.00"
     id="text4064"
     style="font-size:14px;font-family:Times, serif;text-anchor:middle;fill:#008000"
     transform="matrix(0,-1,1,0,0,0)">version</text>
  <path
     d="m 338.41009,428.00609 -63.88355,0.22866 0,156.73523"
     id="path4069"
     inkscape:connector-curvature="0"
     style="fill:none;stroke:#000000"
     sodipodi:nodetypes="ccc" />
  <polygon
     points="154,-182.072 158,-188.072 154,-194.072 154,-194.072 150,-188.072 "
     id="polygon4071"
     style="fill:#000000;stroke:#000000"
     transform="translate(120.52654,778.43475)" />
  <text
     x="-497.76581"
     y="267.65036"
     font-size="14.00"
     id="text4073"
     style="font-size:14px;font-family:Times, serif;text-anchor:middle;fill:#008000"
     transform="matrix(0,-1,1,0,0,0)">name</text>
  <path
     d="m 383.35954,436.86475 0,148.14899"
     id="path4078"
     inkscape:connector-curvature="0"
     style="fill:none;stroke:#000000"
     sodipodi:nodetypes="cc" />
  <polygon
     points="262.833,-189.671 266.833,-195.671 262.833,-201.671 262.833,-201.671 258.833,-195.671 "
     id="polygon4080"
     style="fill:#000000;stroke:#000000"
     transform="translate(120.52654,786.43475)" />
  <text
     x="-507.15906"
     y="407.26074"
     font-size="14.00"
     id="text4082"
     style="font-size:14px;font-family:Times, serif;text-anchor:middle;fill:#008000"
     transform="matrix(0,-1,1,0,0,0)">pw_hash</text>
  <path
     d="m 415.19354,436.86475 0,148.14899"
     id="path4087"
     inkscape:connector-curvature="0"
     style="fill:none;stroke:#000000"
     sodipodi:nodetypes="cc" />
  <polygon
     points="294.667,-189.671 298.667,-195.671 294.667,-201.671 294.667,-201.671 290.667,-195.671 "
     id="polygon4089"
     style="fill:#000000;stroke:#000000"
     transform="translate(120.52654,786.43475)" />
  <text
     x="-507.42899"
     y="376.83218"
     font-size="14.00"
     id="text4091"
     style="font-size:14px;font-family:Times, serif;text-anchor:middle;fill:#008000"
     transform="matrix(0,-1,1,0,0,0)">id</text>
  <path
     d="m 447.02654,436.86475 0,148.14899"
     id="path4096"
     inkscape:connector-curvature="0"
     style="fill:none;stroke:#000000"
     sodipodi:nodetypes="cc" />
  <polygon
     points="326.5,-189.671 330.5,-195.671 326.5,-201.671 326.5,-201.671 322.5,-195.671 "
     id="polygon4098"
     style="fill:#000000;stroke:#000000"
     transform="translate(120.52654,786.43475)" />
  <text
     x="-510.30756"
     y="472.31592"
     font-size="14.00"
     id="text4100"
     style="font-size:14px;font-family:Times, serif;text-anchor:middle;fill:#008000"
     transform="matrix(0,-1,1,0,0,0)">phone</text>
  <path
     d="m 478.85954,436.86475 0,148.5376"
     id="path4105"
     inkscape:connector-curvature="0"
     style="fill:none;stroke:#000000"
     sodipodi:nodetypes="cc" />
  <polygon
     points="358.333,-189.671 362.333,-195.671 358.333,-201.671 358.333,-201.671 354.333,-195.671 "
     id="polygon4107"
     style="fill:#000000;stroke:#000000"
     transform="translate(120.52654,786.43475)" />
  <text
     x="-506.64365"
     y="440.6058"
     font-size="14.00"
     id="text4109"
     style="font-size:14px;font-family:Times, serif;text-anchor:middle;fill:#008000"
     transform="matrix(0,-1,1,0,0,0)">username</text>
  <path
     d="m 510.69354,436.86475 0,148.14899"
     id="path4114"
     inkscape:connector-curvature="0"
     style="fill:none;stroke:#000000"
     sodipodi:nodetypes="cc" />
  <polygon
     points="390.167,-189.671 394.167,-195.671 390.167,-201.671 390.167,-201.671 386.167,-195.671 "
     id="polygon4116"
     style="fill:#000000;stroke:#000000"
     transform="translate(120.52654,786.43475)" />
  <text
     x="-508.69232"
     y="505.41083"
     font-size="14.00"
     id="text4118"
     style="font-size:14px;font-family:Times, serif;text-anchor:middle;fill:#008000"
     transform="matrix(0,-1,1,0,0,0)">mail</text>
  <path
     sodipodi:nodetypes="ccc"
     d="m 567.1904,416.92987 160.63614,0.30488 0,167.41791"
     id="path4123"
     inkscape:connector-curvature="0"
     style="fill:none;stroke:#000000" />
  <polygon
     points="607.3,-189.773 611.3,-195.773 607.3,-201.773 607.3,-201.773 603.3,-195.773 "
     id="polygon4125"
     style="fill:#000000;stroke:#000000"
     transform="translate(120.52654,786.43475)" />
  <text
     x="-502.05191"
     y="719.61444"
     font-size="14.00"
     id="text4127"
     style="font-size:14px;font-family:Times, serif;text-anchor:middle;fill:#008000"
     transform="matrix(0,-1,1,0,0,0)">session_id</text>
  <path
     sodipodi:nodetypes="ccc"
     d="m 567.70793,421.85366 120.91861,0.38109 0,162.66491"
     id="path4132"
     inkscape:connector-curvature="0"
     style="fill:none;stroke:#000000" />
  <polygon
     points="564.1,-195.526 568.1,-189.526 572.1,-195.526 568.1,-201.526 568.1,-201.526 "
     id="polygon4134"
     style="fill:#000000;stroke:#000000"
     transform="translate(120.52654,786.12823)" />
  <text
     x="-507.56665"
     y="604.89111"
     font-size="14.00"
     id="text4136"
     style="font-size:14px;font-family:Times, serif;text-anchor:middle;fill:#008000"
     transform="matrix(0,-1,1,0,0,0)">id</text>
  <path
     sodipodi:nodetypes="ccc"
     d="m 567.36672,426.625 82.05982,0.60975 0,157.35991"
     id="path4141"
     inkscape:connector-curvature="0"
     style="fill:none;stroke:#000000" />
  <polygon
     points="528.9,-189.831 532.9,-195.831 528.9,-201.831 528.9,-201.831 524.9,-195.831 "
     id="polygon4143"
     style="fill:#000000;stroke:#000000"
     transform="translate(120.52654,786.43475)" />
  <text
     x="-506.98285"
     y="641.49323"
     font-size="14.00"
     id="text4145"
     style="font-size:14px;font-family:Times, serif;text-anchor:middle;fill:#008000"
     transform="matrix(0,-1,1,0,0,0)">user_id</text>
  <path
     sodipodi:nodetypes="ccc"
     d="m 567.14218,431.70122 43.08436,0.53353 0,152.36491"
     id="path4150"
     inkscape:connector-curvature="0"
     style="fill:none;stroke:#000000" />
  <polygon
     points="489.7,-189.826 493.7,-195.826 489.7,-201.826 489.7,-201.826 485.7,-195.826 "
     id="polygon4152"
     style="fill:#000000;stroke:#000000"
     transform="translate(120.52654,786.43475)" />
  <text
     x="-505.05292"
     y="681.45551"
     font-size="14.00"
     id="text4154"
     style="font-size:14px;font-family:Times, serif;text-anchor:middle;fill:#008000"
     transform="matrix(0,-1,1,0,0,0)">timestamp</text>
</svg>
